<svg id="Capa_1" data-name="Capa 1" xmlns="http://www.w3.org/2000/svg" viewBox="0 0 500 500"><defs><style>.cls-1{fill:#ebbe48;}.cls-2{opacity:0.5;}.cls-3{fill:#8a7f53;}.cls-4{fill:#34668a;}.cls-5{fill:#043959;}.cls-6{fill:#fed2a4;}.cls-7{fill:#ffbd86;}</style></defs><title>c</title><path class="cls-1" d="M345.92,98.53l12.26,24.84a5.18,5.18,0,0,0,3.9,2.83l27.41,4a5.18,5.18,0,0,1,2.87,8.83l-19.83,19.33a5.17,5.17,0,0,0-1.49,4.58l4.68,27.3a5.18,5.18,0,0,1-7.51,5.46l-24.52-12.89a5.18,5.18,0,0,0-4.82,0l-24.52,12.89a5.18,5.18,0,0,1-7.51-5.46l4.68-27.3a5.18,5.18,0,0,0-1.49-4.58L290.2,139a5.18,5.18,0,0,1,2.87-8.83l27.41-4a5.17,5.17,0,0,0,3.9-2.83l12.26-24.84a5.18,5.18,0,0,1,9.28,0Z"/><g class="cls-2"><path class="cls-3" d="M372.52,158.34a5.19,5.19,0,0,0-1.49,4.58l4.68,27.3a5.18,5.18,0,0,1-7.51,5.46l-7-3.68a5.12,5.12,0,0,0,2.37-5.27l-4.68-27.3a5.17,5.17,0,0,1,1.49-4.58l19.84-19.33a5.16,5.16,0,0,0,.69-6.58l8.58,1.25a5.17,5.17,0,0,1,2.87,8.83Z"/></g><path class="cls-1" d="M204.74,151,212,165.64a3,3,0,0,0,2.3,1.67l16.15,2.35a3.05,3.05,0,0,1,1.69,5.2l-11.69,11.39a3.05,3.05,0,0,0-.88,2.7L222.3,205a3.05,3.05,0,0,1-4.43,3.22l-14.45-7.6a3.05,3.05,0,0,0-2.84,0l-14.45,7.6a3.05,3.05,0,0,1-4.43-3.22L184.47,189a3.05,3.05,0,0,0-.88-2.7l-11.69-11.39a3.05,3.05,0,0,1,1.69-5.2l16.15-2.35a3,3,0,0,0,2.3-1.67L199.27,151a3.05,3.05,0,0,1,5.47,0Z"/><g class="cls-2"><path class="cls-3" d="M220.42,186.26a3,3,0,0,0-.87,2.7L222.3,205a3,3,0,0,1-4.42,3.21l-7.36-3.87a3,3,0,0,0,.86-2.68l-2.76-16.09a3.06,3.06,0,0,1,.87-2.7l11.69-11.39a3,3,0,0,0,.78-3.09l8.46,1.23a3.05,3.05,0,0,1,1.69,5.21Z"/></g><path class="cls-4" d="M124.07,255.49h68.85v93.56H124.07Z"/><g class="cls-2"><path class="cls-5" d="M182.07,255.49h10.86v93.56H182.07Z"/></g><path class="cls-6" d="M192.92,255.49h11.74c12.31,0,24.64-3.43,33.43-12.43C248.9,232,251.18,212.89,252.6,195a17.37,17.37,0,0,1,17.32-16h.48a17.36,17.36,0,0,1,17.34,16.28,142.76,142.76,0,0,1-.22,22.52A81.33,81.33,0,0,1,284,236.33a5,5,0,0,0,4.81,6.56H349.5a15.17,15.17,0,0,1,15.16,15.57,15.39,15.39,0,0,1-15.5,14.77h-4.82a15.17,15.17,0,0,1,15.16,15.57A15.39,15.39,0,0,1,344,303.55h-3.86a15.17,15.17,0,0,1,15.16,15.57,15.39,15.39,0,0,1-15.5,14.77h-9.37a15.17,15.17,0,0,1,15.16,15.57,15.39,15.39,0,0,1-15.5,14.77H257.82a25.72,25.72,0,0,1-12.63-3.32l-15.13-8.53a25.72,25.72,0,0,0-12.63-3.32H192.92Z"/><path class="cls-7" d="M288.78,242.88H276.89a5,5,0,0,1-4.8-6.56,81.34,81.34,0,0,0,3.54-18.57,142.68,142.68,0,0,0,.22-22.52,17.35,17.35,0,0,0-11.64-15.32,17.25,17.25,0,0,1,5.7-1h.49a17.37,17.37,0,0,1,17.34,16.28,142.68,142.68,0,0,1-.22,22.52A81.32,81.32,0,0,1,284,236.33,5,5,0,0,0,288.78,242.88Z"/><path class="cls-7" d="M364.66,258.45a15.39,15.39,0,0,1-15.5,14.77h-4.82a15.17,15.17,0,0,1,15.16,15.57A15.39,15.39,0,0,1,344,303.55h-3.87a15.16,15.16,0,0,1,15.16,15.57,15.39,15.39,0,0,1-15.5,14.77h-9.37a15.16,15.16,0,0,1,15.16,15.56,15.39,15.39,0,0,1-15.5,14.77H318.18a15.39,15.39,0,0,0,15.5-14.77,15.17,15.17,0,0,0-15.16-15.56h9.37a15.39,15.39,0,0,0,15.5-14.77,15.16,15.16,0,0,0-15.16-15.57h3.87a15.39,15.39,0,0,0,15.5-14.77,15.16,15.16,0,0,0-15.16-15.57h4.82a15.39,15.39,0,0,0,15.5-14.77,15.16,15.16,0,0,0-15.16-15.57H349.5a15.17,15.17,0,0,1,15.16,15.57Z"/><path d="M349.5,238.81H288.78a1,1,0,0,1-.8-.41.89.89,0,0,1-.14-.83,85.63,85.63,0,0,0,3.72-19.42A146.73,146.73,0,0,0,291.8,195a21.46,21.46,0,0,0-21.4-20.1h-.48a21.55,21.55,0,0,0-21.37,19.75c-1.39,17.57-3.57,35.56-13.37,45.58-9,9.26-21.59,11.2-30.51,11.2h-45.2a4.07,4.07,0,0,0,0,8.14h29.39V345H128.14V259.56h12.28a4.07,4.07,0,0,0,0-8.14H124.07a4.07,4.07,0,0,0-4.07,4.07v93.56a4.07,4.07,0,0,0,4.07,4.07h93.35a21.7,21.7,0,0,1,10.63,2.79l15.13,8.53a29.86,29.86,0,0,0,14.63,3.84h72.25a19.54,19.54,0,0,0,19.57-18.73,19.08,19.08,0,0,0-4.15-12.45,19.43,19.43,0,0,0,13.86-17.88,19.1,19.1,0,0,0-5.45-13.93l-.23-.23a19.1,19.1,0,0,0,4.54-30,19.3,19.3,0,0,0,10.51-16.51,19.24,19.24,0,0,0-19.23-19.74Zm-.34,30.33H319.42a4.07,4.07,0,0,0,0,8.14h24.91a11.1,11.1,0,0,1,11.09,11.39A11.34,11.34,0,0,1,344,299.48l-24.67,0a4.07,4.07,0,0,0,0,8.14h21.39A11.07,11.07,0,0,1,351.22,319a11.34,11.34,0,0,1-11.43,10.8l-20.46,0a4.07,4.07,0,0,0,0,8.14l11.09,0a11.1,11.1,0,0,1,11.09,11.39,11.34,11.34,0,0,1-11.43,10.8H257.82a21.7,21.7,0,0,1-10.63-2.79l-15.13-8.53A29.86,29.86,0,0,0,217.42,345H197V259.56h7.67c15,0,27.61-4.72,36.34-13.66,11.69-12,14.15-31.58,15.66-50.63A13.37,13.37,0,0,1,269.92,183h.48a13.31,13.31,0,0,1,13.28,12.46,138.62,138.62,0,0,1-.21,21.87c-.78,7.87-1.63,12.34-3.37,17.71a9,9,0,0,0,1.3,8.12,9.15,9.15,0,0,0,7.38,3.76H349.5a11.1,11.1,0,0,1,11.09,11.39,11.34,11.34,0,0,1-11.43,10.8Z"/><path d="M395.2,141.93a9.25,9.25,0,0,0-5.12-15.77l-27.41-4a1.11,1.11,0,0,1-.83-.6L360,117.79a4.07,4.07,0,0,0-7.3,3.6l1.86,3.77a9.24,9.24,0,0,0,7,5.06l27.41,4a1.1,1.1,0,0,1,.61,1.88l-19.83,19.33a9.24,9.24,0,0,0-2.66,8.18l4.68,27.3a1.1,1.1,0,0,1-1.6,1.16l-24.52-12.89a9.24,9.24,0,0,0-8.61,0l-24.52,12.89a1.1,1.1,0,0,1-1.6-1.16l4.68-27.3a9.25,9.25,0,0,0-2.66-8.19L293,136.1a1.1,1.1,0,0,1,.61-1.88l27.41-4a9.24,9.24,0,0,0,7-5.06l12.26-24.84a1.1,1.1,0,0,1,2,0l2.11,4.28a4.07,4.07,0,1,0,7.3-3.6l-2.11-4.28c-3.3-6.68-13.27-6.71-16.58,0l-12.26,24.84a1.11,1.11,0,0,1-.83.6l-27.41,4a9.33,9.33,0,0,0-5.12,15.77l19.83,19.33a1.1,1.1,0,0,1,.32,1l-4.68,27.3a9.33,9.33,0,0,0,13.42,9.75l24.52-12.89a1.1,1.1,0,0,1,1,0l24.52,12.89a9.25,9.25,0,0,0,4.31,1.07,9.42,9.42,0,0,0,9.11-10.82L375,162.24a1.1,1.1,0,0,1,.32-1Z"/><path d="M180.37,188.79l-2.67,15.56A7.12,7.12,0,0,0,188,211.86l14-7.35,14,7.35a7.12,7.12,0,0,0,3.32.83,7.29,7.29,0,0,0,7-8.33l-2.67-15.56,11.3-11A7.18,7.18,0,0,0,231,165.63l-15.62-2.27-7-14.16a7.12,7.12,0,0,0-12.77,0l-7,14.16L173,165.63a7.05,7.05,0,0,0-3.95,12.15l11.3,11Zm10-17.46a7.12,7.12,0,0,0,5.36-3.9L202,154.66l6.31,12.78a7.12,7.12,0,0,0,5.36,3.9l14.11,2.05-10.21,9.95a7.12,7.12,0,0,0-2,6.3l2.41,14-12.62-6.63a7.12,7.12,0,0,0-6.63,0l-12.62,6.63,2.41-14a7.12,7.12,0,0,0-2-6.3l-10.21-9.95Z"/></svg>