<svg id="Capa_1" enable-background="new 0 0 512 512" height="512" viewBox="0 0 512 512" width="512" xmlns="http://www.w3.org/2000/svg"><g><g><path d="m336.813 17.602h8.758c11.758 0 22.284 7.263 26.446 18.254l15.304 40.336h-32.325l-10.102-26.264h-8.081-161.626-8.081l-10.102 26.264h-32.325l15.304-40.336c4.162-10.991 14.688-18.254 26.446-18.254h8.758z" fill="#838383"/></g><g><path d="m405.504 108.516h-68.691v-24.244c0-4.463 3.618-8.081 8.081-8.081h52.528c4.463 0 8.081 3.618 8.081 8.081v24.244z" fill="#ffe07d"/></g><g><path d="m397.423 76.191h-26.264c4.463 0 8.081 3.618 8.081 8.081v24.244h26.264v-24.244c0-4.463-3.618-8.081-8.081-8.081z" fill="#ffd064"/></g><g><path d="m106.496 108.516h68.691v-24.244c0-4.463-3.618-8.081-8.081-8.081h-52.528c-4.463 0-8.081 3.618-8.081 8.081v24.244z" fill="#ffe07d"/></g><g><path d="m167.106 76.191h-26.264c4.463 0 8.081 3.618 8.081 8.081v24.244h26.264v-24.244c0-4.463-3.618-8.081-8.081-8.081z" fill="#ffd064"/></g><g><path d="m504.5 139.068v333.107c0 17.853-14.472 32.325-32.325 32.325h-432.35c-17.853 0-32.325-14.472-32.325-32.325v-333.107z" fill="#995e34"/></g><g><path d="m7.5 139.068v158.402c10.758 14.16 27.754 23.18 46.668 23.18h393.763c13.39 0 24.244 10.854 24.244 24.244v127.28c0 17.853-14.473 32.325-32.325 32.325h32.325c17.853 0 32.325-14.472 32.325-32.325v-333.106z" fill="#8d562f"/></g><g><path d="m7.5 139.068c0 1.182.069 2.362.205 3.536l14.355 123.198c1.899 16.295 15.703 28.584 32.108 28.584h403.664c16.405 0 30.209-12.289 32.108-28.584l14.355-123.199c.137-1.174.205-2.354.205-3.536 0-16.873-13.678-30.551-30.551-30.551h-435.898c-16.873 0-30.551 13.679-30.551 30.552z" fill="#c27e4e"/></g><g><path d="m473.949 108.516h-39.396c16.873 0 30.551 13.678 30.551 30.551 0 1.182-.069 2.362-.205 3.536l-14.355 123.199c-1.899 16.295-15.703 28.584-32.108 28.584h39.396c16.405 0 30.209-12.289 32.108-28.584l14.355-123.199c.137-1.174.205-2.354.205-3.536 0-16.872-13.678-30.551-30.551-30.551z" fill="#b36d3c"/></g><g><path d="m80.232 253.98h48.488v40.407h-48.488z" fill="#838383"/></g><g><path d="m123.135 386.073-14.142 7.071c-2.844 1.422-6.191 1.422-9.035 0l-14.142-7.071c-3.422-1.711-5.584-5.209-5.584-9.035v-42.245h48.488v42.245c0 3.826-2.162 7.323-5.585 9.035z" fill="#5a5a5a"/></g><g><path d="m130.74 334.793h-52.529c-4.463 0-8.081-3.618-8.081-8.081v-24.244c0-4.463 3.618-8.081 8.081-8.081h52.528c4.463 0 8.081 3.618 8.081 8.081v24.244c.001 4.463-3.617 8.081-8.08 8.081z" fill="#ffe07d"/></g><g><path d="m130.74 294.386h-24.244c4.463 0 8.081 3.618 8.081 8.081v24.244c0 4.463-3.618 8.081-8.081 8.081h24.244c4.463 0 8.081-3.618 8.081-8.081v-24.244c0-4.463-3.618-8.081-8.081-8.081z" fill="#ffd064"/></g><g><path d="m383.552 253.98h48.488v40.407h-48.488z" fill="#838383"/></g><g><path d="m426.456 386.073-14.142 7.071c-2.844 1.422-6.191 1.422-9.035 0l-14.142-7.071c-3.422-1.711-5.584-5.209-5.584-9.035v-42.245h48.488v42.245c-.001 3.826-2.163 7.323-5.585 9.035z" fill="#5a5a5a"/></g><g><path d="m434.06 334.793h-52.528c-4.463 0-8.081-3.618-8.081-8.081v-24.244c0-4.463 3.618-8.081 8.081-8.081h52.528c4.463 0 8.081 3.618 8.081 8.081v24.244c0 4.463-3.618 8.081-8.081 8.081z" fill="#ffe07d"/></g><g><path d="m434.06 294.386h-24.244c4.463 0 8.081 3.618 8.081 8.081v24.244c0 4.463-3.618 8.081-8.081 8.081h24.244c4.463 0 8.081-3.618 8.081-8.081v-24.244c0-4.463-3.618-8.081-8.081-8.081z" fill="#ffd064"/></g><g><path d="m326.711 60.028h-141.422c-5.579 0-10.102-4.523-10.102-10.102v-32.324c0-5.579 4.523-10.102 10.102-10.102h141.423c5.579 0 10.102 4.523 10.102 10.102v32.325c-.001 5.579-4.524 10.101-10.103 10.101z" fill="#c27e4e"/></g><g><path d="m326.711 7.5h-26.264c5.579 0 10.102 4.523 10.102 10.102v32.325c0 5.579-4.523 10.102-10.102 10.102h26.264c5.579 0 10.102-4.523 10.102-10.102v-32.325c0-5.579-4.523-10.102-10.102-10.102z" fill="#b36d3c"/></g><path d="m512 139.06c0-10.18-3.962-19.734-11.143-26.889-7.178-7.191-16.734-11.151-26.907-11.151h-60.946v-16.748c0-8.592-6.989-15.582-15.581-15.582h-4.925l-13.467-35.492c-5.231-13.815-18.678-23.098-33.46-23.098h-2.959c-2.823-5.958-8.88-10.1-15.901-10.1h-141.422c-7.021 0-13.077 4.142-15.9 10.102h-2.96c-14.782 0-28.229 9.282-33.458 23.093l-13.468 35.496h-4.926c-8.591 0-15.581 6.99-15.581 15.582v16.748h-60.946c-20.981-.001-38.05 17.063-38.05 38.039v333.11c0 21.962 17.868 39.83 39.83 39.83h32.32c4.142 0 7.5-3.358 7.5-7.5s-3.358-7.5-7.5-7.5h-32.32c-13.691 0-24.83-11.139-24.83-24.83v-202.957c3.423 18.799 19.824 32.677 39.17 32.677h8.489c-.007.193-.029.382-.029.577v24.244c0 6.661 4.21 12.343 10.102 14.567v35.758c0 6.71 3.729 12.743 9.73 15.743l14.142 7.071c2.464 1.232 5.168 1.849 7.872 1.849s5.407-.616 7.872-1.849l14.142-7.071c6.002-3.001 9.731-9.033 9.731-15.744v-35.759c5.892-2.224 10.102-7.906 10.102-14.567v-24.244c0-.195-.022-.384-.029-.577h170.316c4.143 0 7.5-3.358 7.5-7.5s-3.357-7.5-7.5-7.5h-180.39v-25.411h.581c4.142 0 7.5-3.358 7.5-7.5s-3.358-7.5-7.5-7.5h-64.651c-4.142 0-7.5 3.358-7.5 7.5s3.358 7.5 7.5 7.5h.582v25.411h-18.562c-12.599 0-23.2-9.44-24.66-21.958l-14.356-123.16c-.102-.918-.154-1.83-.154-2.71 0-12.704 10.34-23.04 23.05-23.04h162.9c4.142 0 7.5-3.358 7.5-7.5s-3.358-7.5-7.5-7.5h-18.263v-16.748c0-8.321-6.561-15.119-14.779-15.541l3.226-8.387c3.208 4.347 8.35 7.183 14.155 7.183h141.422c5.805 0 10.947-2.836 14.155-7.183l3.225 8.386c-8.218.422-14.778 7.22-14.778 15.541v16.748h-93.363c-4.142 0-7.5 3.358-7.5 7.5s3.358 7.5 7.5 7.5h238c6.161 0 11.947 2.397 16.306 6.763 4.349 4.333 6.744 10.114 6.744 16.277 0 .877-.052 1.79-.149 2.672l-14.359 123.199c-1.461 12.519-12.062 21.959-24.661 21.959h-18.29v-25.411h.581c4.143 0 7.5-3.358 7.5-7.5s-3.357-7.5-7.5-7.5h-64.65c-4.143 0-7.5 3.358-7.5 7.5s3.357 7.5 7.5 7.5h.581v25.411h-24.443c-4.143 0-7.5 3.358-7.5 7.5s3.357 7.5 7.5 7.5h14.369c-.007.193-.029.382-.029.577v24.244c0 6.661 4.209 12.343 10.102 14.567v35.758c0 6.71 3.729 12.743 9.729 15.743l14.143 7.071c2.465 1.232 5.169 1.849 7.872 1.849s5.407-.616 7.872-1.849l14.143-7.071c6.001-3 9.729-9.033 9.729-15.743v-35.759c5.892-2.224 10.102-7.906 10.102-14.567v-24.244c0-.195-.022-.384-.029-.577h8.218c19.346 0 35.748-13.878 39.17-32.678v202.96c0 13.691-11.139 24.83-24.83 24.83h-365.021c-4.142 0-7.5 3.358-7.5 7.5s3.358 7.5 7.5 7.5h365.02c21.963 0 39.83-17.868 39.83-39.83 0 0 0-333.108 0-333.11zm-392.219 240.304-14.142 7.071c-.729.364-1.599.364-2.327 0l-14.143-7.072c-.887-.443-1.438-1.335-1.438-2.327v-34.745h33.488v34.745c.001.993-.551 1.884-1.438 2.328zm11.54-76.897v24.244c0 .32-.261.581-.582.581h-52.528c-.321 0-.582-.261-.582-.581v-24.244c0-.313.251-.566.562-.577h52.567c.312.011.563.264.563.577zm-10.101-40.988v25.407h-33.488v-25.407zm243.785-222.963 11.449 30.175h-16.307l-8.252-21.457c-1.114-2.896-3.896-4.808-7-4.808h-.581v-17.324h1.258c8.585 0 16.394 5.389 19.433 13.414zm-218.008-.005c3.037-8.021 10.846-13.41 19.432-13.41h1.258v17.325h-.582c-3.104 0-5.886 1.911-7 4.808l-8.253 21.457h-16.307zm-33.001 62.509v-16.748c0-.321.261-.582.581-.582h52.528c.321 0 .582.261.582.582v16.748zm215.317-51.093c0 1.435-1.167 2.602-2.603 2.602h-141.421c-1.435 0-2.602-1.167-2.602-2.602v-32.325c0-1.435 1.167-2.602 2.602-2.602h141.422c1.436 0 2.603 1.167 2.603 2.602v32.325zm15 34.345c0-.321.261-.582.581-.582h52.528c.32 0 .581.261.581.582v16.748h-53.69zm80.227 177.207v25.407h-33.488v-25.407zm-1.438 117.885-14.143 7.071c-.729.364-1.598.364-2.326 0l-14.143-7.071c-.888-.444-1.438-1.335-1.438-2.327v-34.745h33.488v34.745c0 .992-.551 1.883-1.438 2.327zm11.54-76.897v24.244c0 .32-.261.581-.582.581h-52.528c-.32 0-.581-.261-.581-.581v-24.244c0-.313.251-.566.562-.577h52.567c.311.011.562.264.562.577z"/></g></svg>