<?xml version="1.0" encoding="UTF-8"?>
<svg xmlns="http://www.w3.org/2000/svg" viewBox="0 0 64 64" width="512" height="512"><g id="Layer_13" data-name="Layer 13"><path d="M62,36V28l-4.485-1a25.845,25.845,0,0,0-3.939-9.514l2.466-3.874L50.385,7.958l-3.874,2.466A25.845,25.845,0,0,0,37,6.485L36,2H28L27,6.485a25.845,25.845,0,0,0-9.514,3.939L13.615,7.958,7.958,13.615l2.466,3.874A25.845,25.845,0,0,0,6.485,27L2,28v8l4.485,1a25.845,25.845,0,0,0,3.939,9.514L7.958,50.385l5.657,5.657,3.874-2.466A25.845,25.845,0,0,0,27,57.515L28,62h8l1-4.485a25.845,25.845,0,0,0,9.514-3.939l3.874,2.466,5.657-5.657-2.466-3.874A25.845,25.845,0,0,0,57.515,37Z" style="fill:#3b5892"/><circle cx="32" cy="32" r="18" style="fill:#e2e7f6"/><path d="M47,30a17.964,17.964,0,0,0-6.552-13.891A18,18,0,0,0,20.553,45.891,17.994,17.994,0,0,0,47,30Z" style="fill:#f2f2f2"/><path d="M39,40H25a5,5,0,0,0-5,5v.389a17.92,17.92,0,0,0,24,0V45A5,5,0,0,0,39,40Z" style="fill:#5e87ca"/><path d="M39.862,40.087A5.007,5.007,0,0,0,39,40H25a4.986,4.986,0,0,0-4.969,4.688H36.862a3,3,0,0,0,3-3Z" style="fill:#78a0d4"/><path d="M29,37v3a3,3,0,0,0,3,3h0a3,3,0,0,0,3-3V37" style="fill:#f2b9a1"/><path d="M27,29H24a2,2,0,0,0-2,2h0a2,2,0,0,0,2,2h3" style="fill:#f2b9a1"/><path d="M37,29h3a2,2,0,0,1,2,2h0a2,2,0,0,1-2,2H37" style="fill:#f2b9a1"/><path d="M39,29l1-3V24.657A5.657,5.657,0,0,0,34.343,19h0a5.657,5.657,0,0,0-4,1.657L30,21l-1.226-1.226A2.642,2.642,0,0,0,26.905,19h0A2.642,2.642,0,0,0,24.4,20.807h0a7.728,7.728,0,0,0-.4,2.45h0a14.145,14.145,0,0,0,.423,3.434L25,29Z" style="fill:#c18e59"/><path d="M38,28v4a6,6,0,0,1-6,6h0a6,6,0,0,1-6-6V28l4.03-.576A3.459,3.459,0,0,0,33,24h0Z" style="fill:#fbe1ca"/><path d="M62.217,27.024l-3.854-.857a26.69,26.69,0,0,0-3.6-8.686l2.119-3.329a1,1,0,0,0-.137-1.244L51.092,7.251a1,1,0,0,0-1.244-.136L46.52,9.233a26.706,26.706,0,0,0-8.688-3.6l-.855-3.854A1,1,0,0,0,36,1H28a1,1,0,0,0-.977.783l-.856,3.854a26.7,26.7,0,0,0-8.687,3.6L14.152,7.115a1,1,0,0,0-1.244.136L7.251,12.908a1,1,0,0,0-.137,1.244l2.119,3.329a26.677,26.677,0,0,0-3.6,8.686l-3.854.857A1,1,0,0,0,1,28v8a1,1,0,0,0,.783.976l3.854.857a26.7,26.7,0,0,0,3.6,8.686L7.114,49.848a1,1,0,0,0,.137,1.244l5.657,5.657a1,1,0,0,0,1.244.136l3.328-2.118a26.7,26.7,0,0,0,8.687,3.6l.856,3.854A1,1,0,0,0,28,63h8a1,1,0,0,0,.977-.783l.856-3.854a26.7,26.7,0,0,0,8.687-3.6l3.328,2.118a1,1,0,0,0,1.244-.136l5.657-5.657a1,1,0,0,0,.137-1.244l-2.119-3.329a26.677,26.677,0,0,0,3.6-8.686l3.854-.857A1,1,0,0,0,63,36V28A1,1,0,0,0,62.217,27.024ZM61,35.2l-3.7.823a1,1,0,0,0-.765.784,24.75,24.75,0,0,1-3.787,9.147,1,1,0,0,0-.015,1.1l2.036,3.2-4.523,4.522-3.2-2.035a1,1,0,0,0-1.1.015,24.743,24.743,0,0,1-9.146,3.787,1,1,0,0,0-.785.764L35.2,61H28.8l-.823-3.7a1,1,0,0,0-.785-.764,24.743,24.743,0,0,1-9.146-3.787,1,1,0,0,0-1.1-.015l-3.2,2.035L9.232,50.245l2.036-3.2a1,1,0,0,0-.015-1.1,24.743,24.743,0,0,1-3.787-9.147,1,1,0,0,0-.765-.784L3,35.2V28.8l3.7-.823a1,1,0,0,0,.765-.784,24.75,24.75,0,0,1,3.787-9.147,1,1,0,0,0,.015-1.1l-2.036-3.2,4.523-4.522,3.2,2.035a1,1,0,0,0,1.1-.015,24.743,24.743,0,0,1,9.146-3.787,1,1,0,0,0,.785-.764L28.8,3h6.4l.823,3.7a1,1,0,0,0,.785.764,24.747,24.747,0,0,1,9.147,3.787,1,1,0,0,0,1.1.015l3.2-2.035,4.523,4.522-2.036,3.2a1,1,0,0,0,.015,1.1A24.743,24.743,0,0,1,56.534,27.2a1,1,0,0,0,.765.784L61,28.8Z"/><path d="M32,13A19,19,0,1,0,51,32,19.021,19.021,0,0,0,32,13ZM21.006,44.943A4,4,0,0,1,25,41h3.142a3.981,3.981,0,0,0,7.716,0H39a4,4,0,0,1,3.994,3.943,16.925,16.925,0,0,1-21.988,0ZM25,32H24a1,1,0,0,1,0-2h1Zm.858-4.99a.993.993,0,0,0-.3.1l-.165-.663A13.135,13.135,0,0,1,25,23.257a6.711,6.711,0,0,1,.346-2.133,1.644,1.644,0,0,1,2.721-.643l1.226,1.226a1,1,0,0,0,1.415,0l.342-.343A4.657,4.657,0,0,1,39,24.657v1.181l-.442,1.327-4.933-3.946A1,1,0,0,0,32,24a2.472,2.472,0,0,1-2.111,2.435ZM39,30h1a1,1,0,0,1,0,2H39ZM27,28.867l3.172-.453a4.482,4.482,0,0,0,3.453-2.634L37,28.48V32a5,5,0,0,1-10,0ZM32,39a6.956,6.956,0,0,0,2-.3V40a2,2,0,0,1-4,0v-1.3A6.956,6.956,0,0,0,32,39Zm12.732,4.227A6.01,6.01,0,0,0,39,39H36V37.736A7.016,7.016,0,0,0,38.705,34H40a2.992,2.992,0,0,0,.374-5.962l.574-1.722A1,1,0,0,0,41,26V24.657A6.657,6.657,0,0,0,30.014,19.6l-.533-.533a3.643,3.643,0,0,0-6.032,1.424A8.715,8.715,0,0,0,23,23.257a15.125,15.125,0,0,0,.453,3.677l.274,1.094A2.992,2.992,0,0,0,24,34h1.3A7.016,7.016,0,0,0,28,37.736V39H25a6.01,6.01,0,0,0-5.732,4.227,17,17,0,1,1,25.464,0Z"/></g></svg>
