<svg id="Layer_35" enable-background="new 0 0 64 64" height="512" viewBox="0 0 64 64" width="512" xmlns="http://www.w3.org/2000/svg"><path d="m23.87 8.63-4.48-1.5c-.26-.09-.53-.13-.81-.13-.97 0-1.85.55-2.29 1.42l-1.29 2.58h-1.16c-2.12 0-3.84 1.72-3.84 3.84 0 .76.22 1.5.64 2.13l1.36 2.03v4l-1.65-1.1c-2.72-1.81-4.35-4.86-4.35-8.12v-2.21c0-1.45.32-2.86.92-4.14s1.48-2.43 2.59-3.36c1.61-1.34 3.64-2.07 5.73-2.07 4.09 0 7.61 2.76 8.63 6.63z" fill="#b27946"/><path d="m18 20v4l-3 2-3-3v-4l-1.36-2.03c-.42-.63-.64-1.37-.64-2.13 0-2.12 1.72-3.84 3.84-3.84h1.16l1.29-2.58c.44-.87 1.32-1.42 2.29-1.42.28 0 .55.04.81.13l4.48 1.5c.11.34.18.69.23 1.05l.9 6.32-2 1-1 3z" fill="#f0d0b4"/><path d="m2 54h22v8h-22z" fill="#cf9e76"/><g fill="#fcd770"><path d="m15 52 3-3-.25-3h6.25v8h-22v-23.55c0 1 .37 1.96 1.04 2.7l9.42 10.33-.46 5.52z"/><path d="m24 32.32v7.68h-6.3c-.16 0-.32-.04-.46-.12l-1.06-12.7 2.82 2.82.85-5.13c.98.61 1.83 1.4 2.49 2.32 1.06 1.46 1.66 3.25 1.66 5.13z"/><path d="m13.15 35.2 3.79 4.45c.08.1.19.18.3.23.14.08.3.12.46.12h6.3 5 .02c.82 0 1.57.33 2.12.87.54.54.88 1.29.88 2.11.02 1.66-1.33 3.02-3 3.02h-.02-5-6.25-1.23c-1.12 0-2.19-.47-2.95-1.31l-1.11-1.21-9.42-10.33c-.67-.74-1.04-1.7-1.04-2.7 0-3.17 2.24-5.9 5.35-6.52l2.71-.54.94 6.61 2.82-2.82z"/></g><path d="m40.72 37.43 1.28 2.57v2.97l-1.57 1.72c-.76.84-1.83 1.31-2.95 1.31h-8.46c1.67 0 3.02-1.36 3-3.02 0-.82-.34-1.57-.88-2.11-.55-.54-1.3-.87-2.12-.87h7.28c.29 0 .57-.13.76-.35l3.11-3.65.02-.01c.12.49.3.98.53 1.44z" fill="#5cd6b3"/><path d="m17.75 46 .25 3-3 3-3-3 .46-5.52 1.11 1.21c.76.84 1.83 1.31 2.95 1.31z" fill="#ff826e"/><path d="m16.18 27.18 1.06 12.7c-.11-.05-.22-.13-.3-.23l-3.79-4.45.67-8.02 1.18-1.18z" fill="#ff826e"/><path d="m19.85 24.87-.85 5.13-2.82-2.82-1.18-1.18 3-2c.66.22 1.28.51 1.85.87z" fill="#ffeaa7"/><path d="m15 26-1.18 1.18-2.82 2.82-.94-6.61 1.94-.39z" fill="#ffeaa7"/><path d="m58 56v6h-16v-8h6v2h7z" fill="#838f9b"/><path d="m55 56c1.66 0 3-1.34 3-3v-10h4v13h-4z" fill="#e6e9ed"/><path d="m52 53c0 .83.34 1.58.88 2.12s1.29.88 2.12.88h-7v-2-11h4z" fill="#e6e9ed"/><path d="m52 43h-4v11h-6v-11.03-2.97l-1.28-2.57c-.23-.46-.41-.95-.53-1.44-.13-.52-.19-1.05-.19-1.59 0-2.14 1.01-4.15 2.72-5.44l5.28-3.96v-1.61c0 .72.29 1.37.76 1.85.48.47 1.13.76 1.85.76.87 0 1.68-.44 2.16-1.16l1.23-1.84v1l.08.04c2.4 1.2 3.92 3.66 3.92 6.35v.2 12.41 10c0 1.66-1.34 3-3 3-.83 0-1.58-.34-2.12-.88s-.88-1.29-.88-2.12z" fill="#5cd6b3"/><path d="m54.08 24.04-.08-.04v-1-3l1.36-2.03c.42-.63.64-1.37.64-2.13 0-2.12-1.72-3.84-3.84-3.84h-1.16l-1.29-2.58c-.44-.87-1.32-1.42-2.29-1.42-.28 0-.55.04-.81.13l-4.48 1.5c1.02-3.87 4.54-6.63 8.63-6.63 2.09 0 4.12.73 5.73 2.07l.29.25c2.04 1.7 3.22 4.22 3.22 6.87v9.2c0 2.36.7 4.65 2 6.61 0 0-.3.44-.94.99-.65.54-1.65 1.19-3.06 1.6v-.2c0-2.69-1.52-5.15-3.92-6.35z" fill="#656d78"/><path d="m48 21h-4l-1-3-2-1 .9-6.32c.05-.36.12-.71.23-1.05l4.48-1.5c.26-.09.53-.13.81-.13.97 0 1.85.55 2.29 1.42l1.29 2.58h1.16c2.12 0 3.84 1.72 3.84 3.84 0 .76-.22 1.5-.64 2.13l-1.36 2.03v3l-1.23 1.84c-.48.72-1.29 1.16-2.16 1.16-.72 0-1.37-.29-1.85-.76-.47-.48-.76-1.13-.76-1.85v-.39z" fill="#f0d0b4"/><path d="m59 31.297c2.609-.982 3.78-2.665 3.832-2.743l.37-.554-.37-.555c-1.199-1.798-1.832-3.89-1.832-6.05v-9.204c0-2.961-1.305-5.747-3.579-7.642l-.292-.243c-1.784-1.487-4.046-2.306-6.369-2.306-4.918 0-9.152 3.672-9.848 8.541l-1.004 7.031 2.274 1.137 1.097 3.291h3.721v1 .395 1.105l-4.883 3.662c-1.951 1.464-3.117 3.795-3.117 6.234 0 .433.05.865.122 1.292l-2.826 3.312h-7.271-.025-4v-6.675c0-3.969-2.383-7.506-6-9.017v-2.308h3.721l1.097-3.291 2.274-1.137-1.004-7.031c-.696-4.869-4.93-8.541-9.848-8.541-2.322 0-4.584.819-6.369 2.306-2.46 2.05-3.871 5.063-3.871 8.265v2.207c0 3.47 1.672 6.688 4.471 8.709l-2.322.465c-3.479.696-6.019 3.72-6.138 7.244h-.011v32.804h24v-16h4 .025 8.451c1.326 0 2.59-.546 3.524-1.479v17.479h18v-6h4v-15h-4zm-8.24-27.297c1.856 0 3.663.654 5.088 1.842l.292.243c1.818 1.515 2.86 3.74 2.86 6.106v9.204c0 2.301.607 4.536 1.762 6.511-.358.354-.975.85-1.859 1.272-.357-2.388-1.753-4.491-3.903-5.769v-3.105l1.188-1.781c.531-.798.812-1.727.812-2.685 0-2.668-2.17-4.838-4.838-4.838h-.544l-1.015-2.03c-.607-1.215-1.829-1.97-3.187-1.97-.383 0-.762.062-1.127.183l-2.404.801c1.39-2.391 3.982-3.984 6.875-3.984zm-1.76 17.816c1.161-.414 2-1.514 2-2.816v-1h-2v1c0 .551-.449 1-1 1h-3.279l-.903-2.709-1.726-.863.8-5.604c.021-.145.053-.286.082-.428l3.948-1.316c.725-.24 1.551.101 1.893.784l1.567 3.136h1.78c1.565 0 2.838 1.273 2.838 2.838 0 .562-.165 1.106-.477 1.574l-1.523 2.285v3l-1.059 1.587c-.298.449-.797.716-1.336.716-.885 0-1.605-.72-1.605-1.605v-.395zm-5.683 7.946 4.907-3.68c.637.564 1.465.918 2.381.918 1.208 0 2.329-.6 3-1.605l.228-.342c1.955 1.073 3.167 3.089 3.167 5.334v22.613c0 1.103-.897 2-2 2s-2-.897-2-2v-18.343c0-1.335-.52-2.591-1.464-3.535l-.829-.829-1.414 1.414.829.829c.558.558.878 1.331.878 2.121v7.343h-4v11h-4v-13.236l-1.388-2.777c-.4-.8-.612-1.696-.612-2.59 0-1.814.866-3.546 2.317-4.635zm8.239 25.238h-2.556v-11h2v9c0 .732.212 1.409.556 2zm-28.556-22.675v6.675h-4.83l-.765-9.181 2.262 2.262.898-5.388c1.515 1.435 2.435 3.445 2.435 5.632zm-11.328-8.239 1.759 1.759.155.155-1.879 1.878-.528-3.694zm.923 5.733-.243 2.91-1.228-1.439zm2.189-2.189.216-.216.216.216.781 9.369-1.816-2.127zm3.325-2.501c.217.087.438.168.644.273l-.42 2.517-1.763-1.764zm4.073-8.838-.903 2.709h-3.279c-.551 0-1-.449-1-1v-1h-2v1c0 1.302.839 2.402 2 2.816v2.649l-1.873 1.248-2.127-2.127v-3.889l-1.523-2.285c-.312-.468-.477-1.012-.477-1.574 0-1.565 1.273-2.838 2.838-2.838h1.78l1.568-3.136c.341-.683 1.17-1.026 1.892-.784l3.948 1.316c.028.142.061.283.082.428l.8 5.604zm-15.182-2.514v-2.207c0-2.607 1.149-5.06 3.151-6.729 1.426-1.187 3.233-1.841 5.089-1.841 2.893 0 5.485 1.593 6.875 3.984l-2.405-.801c-.364-.121-.743-.183-1.126-.183-1.358 0-2.58.755-3.187 1.97l-1.015 2.03h-.544c-2.668 0-4.838 2.17-4.838 4.838 0 .958.281 1.887.812 2.684l1.188 1.781v1.829l-.1-.066c-2.442-1.629-3.9-4.354-3.9-7.289zm9.83 33.223.135 1.621-1.965 1.965-1.965-1.965.238-2.857c.903.778 2.048 1.236 3.251 1.236zm-2.244 6h-11.586v-18.418l8.427 9.249-.462 5.549zm-11.586 8v-6h20v6zm20-8h-7.586l3.621-3.621-.198-2.379h4.163zm6-8h-12.476c-.842 0-1.65-.357-2.217-.979l-10.524-11.549c-.505-.555-.783-1.272-.783-2.021 0-2.683 1.91-5.013 4.542-5.539l1.674-.335.768 5.378-2.223-2.604-1.521 1.299 9.944 11.65c.38.445.934.7 1.52.7h11.296.025c1.094 0 1.991.89 2 1.983.004.537-.202 1.043-.58 1.425-.379.382-.883.592-1.42.592zm10.693-.979c-.567.622-1.375.979-2.217.979h-5.004c.357-.613.558-1.305.552-2.033-.006-.719-.218-1.385-.559-1.967h3.83c.586 0 1.14-.255 1.521-.701l2.027-2.375 1.157 2.312v2.351zm17.307 16.979h-14v-6h4v2h10zm4-17v11h-2.556c.344-.591.556-1.268.556-2v-9z"/></svg>