<svg id="Capa_1" data-name="Capa 1" xmlns="http://www.w3.org/2000/svg" viewBox="0 0 500 500"><defs><style>.cls-1,.cls-3{fill:#bac9ce;}.cls-1,.cls-2{opacity:0.5;}.cls-4{fill:#34668a;}.cls-5{fill:#4a80aa;}.cls-6{fill:#8a7f53;}.cls-7{fill:#bed8fb;}.cls-8{fill:#f4fbff;}.cls-9{fill:#ffcbbe;}.cls-10{fill:#365e7d;}.cls-11{fill:#ffddce;}.cls-12{fill:#ebbe48;}</style></defs><title>c</title><path class="cls-1" d="M311.09,132.59h-131a15.24,15.24,0,0,0-15.24,15.24V373.22a15.24,15.24,0,0,0,15.24,15.24H350.9a15.24,15.24,0,0,0,15.24-15.24V187.64a15.24,15.24,0,0,0-4.46-10.78l-39.81-39.81a15.24,15.24,0,0,0-10.78-4.46Z"/><g class="cls-2"><path class="cls-3" d="M361.67,176.86l-28-28V373.22a15.24,15.24,0,0,1-15.24,15.24H350.9a15.24,15.24,0,0,0,15.24-15.24V187.64a15.24,15.24,0,0,0-4.46-10.78Z"/></g><path class="cls-4" d="M361.67,176.86l-39.81-39.81a15.24,15.24,0,0,0-4.46-3.1v37.92a9.45,9.45,0,0,0,9.45,9.45h37.92a15.24,15.24,0,0,0-3.09-4.46Z"/><path class="cls-5" d="M220.43,322.54l11.72-11.72,24.55,24.55L245,347.09Z"/><path class="cls-6" d="M294.14,365.38,259,330.28a5.15,5.15,0,0,0-7.28,0l-11.83,11.83a5.15,5.15,0,0,0,0,7.28L275,384.5a13.52,13.52,0,1,0,19.12-19.12Z"/><circle class="cls-7" cx="183.87" cy="274.23" r="71.05"/><circle class="cls-8" cx="183.87" cy="274.23" r="55.65"/><path class="cls-9" d="M195.79,300.2a2.81,2.81,0,0,1-2.46-2.77l-.05-12.83-19.61.08.05,12.83a2.81,2.81,0,0,1-2.44,2.79s-3.62,12.38,12.3,12.31S195.79,300.2,195.79,300.2Z"/><path class="cls-10" d="M212.94,303.95c-4.49-2-13-3.23-17.15-3.75l0,0a15.71,15.71,0,0,1-24.48.07c-4.17.56-12.64,1.88-17.12,3.9a12.76,12.76,0,0,0-7.43,11.48,55.66,55.66,0,0,0,74,.29,12.68,12.68,0,0,0-7.75-12Z"/><path class="cls-5" d="M198.77,244.53a5.6,5.6,0,0,0-5.6-5.6H174.53A13.56,13.56,0,0,0,161,252.49v10.1l4.63,3.55h36.22l4.63-7.8V252a5.6,5.6,0,0,0-5.6-5.6h-.19a1.89,1.89,0,0,1-1.89-1.89Z"/><path class="cls-11" d="M206.46,258.34l-8.89-.83a17.52,17.52,0,0,0-10.79,2.5,17.52,17.52,0,0,1-9.15,2.58H161v8a3,3,0,0,0,2.95,2.95,1,1,0,0,1,1,.9,18.86,18.86,0,0,0,37.64,0,.93.93,0,0,1,.93-.87h0a3,3,0,0,0,3-3c0-4.44,0-12.25,0-12.25Z"/><path class="cls-12" d="M270.07,181.33h-76.6a4.44,4.44,0,0,1-4.44-4.44v-14.8a4.44,4.44,0,0,1,4.44-4.44h76.6a4.44,4.44,0,0,1,4.44,4.44v14.8A4.44,4.44,0,0,1,270.07,181.33Z"/><path d="M341.09,229H274.51a3.86,3.86,0,0,0,0,7.72h66.58a3.86,3.86,0,1,0,0-7.72Z"/><path d="M341.09,252.25H274.51a3.86,3.86,0,0,0,0,7.72h66.58a3.86,3.86,0,1,0,0-7.72Z"/><path d="M344.95,279.38a3.86,3.86,0,0,0-3.86-3.86H274.51a3.86,3.86,0,0,0,0,7.72h66.58A3.86,3.86,0,0,0,344.95,279.38Z"/><path d="M274.51,298.8a3.86,3.86,0,0,0,0,7.72H307.8a3.86,3.86,0,0,0,0-7.72Z"/><path d="M364.4,174.13,324.6,134.33a19.1,19.1,0,0,0-13.51-5.6h-131a19.12,19.12,0,0,0-19.1,19.1v39.53a3.86,3.86,0,1,0,7.72,0V147.83a11.39,11.39,0,0,1,11.38-11.38h131a11.36,11.36,0,0,1,2.45.27v35.16a13.33,13.33,0,0,0,13.31,13.31H362a11.38,11.38,0,0,1,.27,2.45V373.22A11.39,11.39,0,0,1,350.9,384.6H299a17.41,17.41,0,0,0-2.16-21.94l-35.1-35.1a9,9,0,0,0-9.47-2.08l-7.56-7.56a74.92,74.92,0,1,0-17.19,17.18l7.56,7.56a9,9,0,0,0,2.08,9.47l32.47,32.47H180.1a11.39,11.39,0,0,1-11.38-11.38V360.84a3.86,3.86,0,0,0-7.72,0v12.37a19.12,19.12,0,0,0,19.1,19.1H350.9a19.12,19.12,0,0,0,19.1-19.1V187.64a19.14,19.14,0,0,0-5.6-13.51Zm-228,147.61a67.19,67.19,0,1,1,100.24-5.87A68.18,68.18,0,0,1,225.51,327,67.22,67.22,0,0,1,136.37,321.74Zm97.27,8.49a76,76,0,0,0,6.25-6.25l6.36,6.36L240,336.6l-6.36-6.36h0Zm44.12,51.54-35.1-35.1a1.29,1.29,0,0,1,0-1.82l.05-.05h0L254.48,333a1.29,1.29,0,0,1,1.82,0l35.1,35.1a9.66,9.66,0,0,1-13.66,13.66Zm43.51-209.89v-30l35.55,35.55h-30A5.59,5.59,0,0,1,321.26,171.88Z"/><path d="M270.07,153.78h-76.6a8.31,8.31,0,0,0-8.3,8.3v14.8a8.31,8.31,0,0,0,8.3,8.3h76.6a8.31,8.31,0,0,0,8.3-8.3v-14.8A8.31,8.31,0,0,0,270.07,153.78Zm.58,23.1a.58.58,0,0,1-.58.58h-76.6a.58.58,0,0,1-.58-.58v-14.8a.58.58,0,0,1,.58-.58h76.6a.58.58,0,0,1,.58.58v14.8Z"/><path d="M226,316.31A59.51,59.51,0,1,0,125,265.19a3.86,3.86,0,0,0,7.63,1.17,51.79,51.79,0,1,1,90.16,42,16.7,16.7,0,0,0-8.35-7.92c-4.57-2-12.46-3.29-17.31-3.93l0-4.88a22.65,22.65,0,0,0,9-14.68,6.86,6.86,0,0,0,4.21-6.36c0-5.12,0-13.6,0-18.54a9.48,9.48,0,0,0-7.86-9.33,9.48,9.48,0,0,0-9.29-7.63H174.53a17.44,17.44,0,0,0-17.43,17.42v18.14a6.82,6.82,0,0,0,4.16,6.27,22.71,22.71,0,0,0,8.56,14.37l0,5.32c-4.84.68-12.72,2-17.28,4.08a16.28,16.28,0,0,0-7.84,7.47,51.38,51.38,0,0,1-11.88-25,3.86,3.86,0,1,0-7.61,1.32A59.52,59.52,0,0,0,226,316.31Zm-51.42-73.53h18.64a1.74,1.74,0,0,1,1.74,1.74,5.76,5.76,0,0,0,5.75,5.75h.19A1.74,1.74,0,0,1,202.6,252v2.07l-4.67-.44a21.53,21.53,0,0,0-13.16,3.05,13.66,13.66,0,0,1-7.13,2h-12.8v-6.23a9.71,9.71,0,0,1,9.7-9.7Zm-9.7,27v-3.36h12.8a21.37,21.37,0,0,0,11.17-3.15,13.74,13.74,0,0,1,8.41-2l5.39.51c0,2.38,0,5.52,0,7.94a4.79,4.79,0,0,0-4,4.43,15,15,0,0,1-29.93,0,4.83,4.83,0,0,0-3.91-4.43ZM183.71,296a22.69,22.69,0,0,0,5.75-.74v2.15a6.61,6.61,0,0,0,.64,2.81,11.79,11.79,0,0,1-6.58,2h0a11.79,11.79,0,0,1-6.53-2,6.61,6.61,0,0,0,.62-2.81v-2.31a22.63,22.63,0,0,0,6.14.85Zm-32.93,18a8.74,8.74,0,0,1,5-6.35c2.63-1.18,7.69-2.37,14.06-3.31A19.46,19.46,0,0,0,183.49,310h.06a19.46,19.46,0,0,0,13.75-5.7c6.38.89,11.45,2,14.08,3.19a8.81,8.81,0,0,1,5.33,6.8,51.88,51.88,0,0,1-65.93-.21Z"/></svg>