<svg id="Capa_1" data-name="Capa 1" xmlns="http://www.w3.org/2000/svg" viewBox="0 0 500 500"><defs><style>.cls-1{fill:#34668a;}.cls-2{fill:#455f7e;}.cls-3{fill:#bac9ce;}.cls-4,.cls-7{fill:#043959;}.cls-5{fill:#fff;}.cls-6{fill:#efeaf4;}.cls-7{opacity:0.9;}.cls-8{fill:#dd8793;}.cls-9{fill:#d5707e;}.cls-10{fill:#fed2a4;}.cls-11{fill:#ffbd86;}.cls-12,.cls-13{fill:#8a7f53;}.cls-12{opacity:0.75;}.cls-14{fill:#ebbe48;}</style></defs><title>webinars</title><path class="cls-1" d="M368.64,324.37H131.36a16.29,16.29,0,0,1-16.29-16.29V154.73a16.29,16.29,0,0,1,16.29-16.29H368.64a16.29,16.29,0,0,1,16.29,16.29V308.08A16.29,16.29,0,0,1,368.64,324.37Z"/><path class="cls-2" d="M368.64,138.44H352.35a16.29,16.29,0,0,1,16.29,16.29V308.08a16.29,16.29,0,0,1-16.29,16.29h16.29a16.29,16.29,0,0,0,16.29-16.29V154.73a16.29,16.29,0,0,0-16.29-16.29Z"/><path class="cls-3" d="M131.36,297.76V156.91a2.17,2.17,0,0,1,2.17-2.17H366.47a2.17,2.17,0,0,1,2.17,2.17V297.76a2.17,2.17,0,0,1-2.17,2.17H133.53A2.17,2.17,0,0,1,131.36,297.76Z"/><path class="cls-3" d="M366.47,154.73H350.18a2.17,2.17,0,0,1,2.17,2.17V297.76a2.17,2.17,0,0,1-2.17,2.17h16.29a2.17,2.17,0,0,0,2.17-2.17V156.91a2.17,2.17,0,0,0-2.17-2.17Z"/><path class="cls-1" d="M276.9,384.93H223.1l8.14-60.56h37.51Z"/><path class="cls-4" d="M268.76,324.37H252.47l8.14,60.56H276.9Z"/><path class="cls-1" d="M285.24,358.74,291,379.42a4.34,4.34,0,0,1-4.19,5.5H213.21a4.34,4.34,0,0,1-4.19-5.5l5.74-20.68a4.34,4.34,0,0,1,4.19-3.18h62.1A4.34,4.34,0,0,1,285.24,358.74Z"/><path class="cls-4" d="M291,379.42l-5.74-20.68a4.34,4.34,0,0,0-4.19-3.18H264.76a4.34,4.34,0,0,1,4.19,3.18l5.74,20.68a4.34,4.34,0,0,1-4.19,5.5h16.29A4.34,4.34,0,0,0,291,379.42Z"/><path class="cls-5" d="M163.67,147.65H336.33V299.93H163.67Z"/><path class="cls-6" d="M329.81,115.07H313.52a6.52,6.52,0,0,1,6.52,6.52V299.93h16.29V121.59A6.52,6.52,0,0,0,329.81,115.07Z"/><path class="cls-7" d="M329.81,115.07H170.19a6.52,6.52,0,0,0-6.52,6.52v26.06H336.33V121.59A6.52,6.52,0,0,0,329.81,115.07Z"/><path class="cls-4" d="M329.81,115.07H313.52a6.52,6.52,0,0,1,6.52,6.52v26.06h16.29V121.59A6.52,6.52,0,0,0,329.81,115.07Z"/><path class="cls-8" d="M296.21,299.93V271.77a22.57,22.57,0,0,0-14.31-21l-11-4.33a11.37,11.37,0,0,1-7.21-10.58v-9H236.32v9a11.37,11.37,0,0,1-7.21,10.58l-11,4.33a22.57,22.57,0,0,0-14.31,21v28.16"/><path class="cls-9" d="M281.89,250.76l-11-4.33a11.37,11.37,0,0,1-7.21-10.58v-9H247.39V244a11.37,11.37,0,0,0,7.21,10.58l11,4.33a22.57,22.57,0,0,1,14.31,21v20h16.29V271.77A22.58,22.58,0,0,0,281.89,250.76Z"/><path class="cls-10" d="M250,254.86a25,25,0,0,0,19.37-9.16c-3.48-2-13.83-5.74-13.83-9.85v-9H236.32v9a11.37,11.37,0,0,1-5.69,9.85A25,25,0,0,0,250,254.86Z"/><path class="cls-11" d="M254.37,254.48a25,25,0,0,0,15-8.78,11.36,11.36,0,0,1-5.69-9.85v-9H247.39V244A11.37,11.37,0,0,0,254.37,254.48Z"/><path class="cls-10" d="M250.61,230.47c-.86,0-2.32,2.76-3.16,2.67a24.94,24.94,0,0,1-22.38-24.8V197.53l8.14-19.59c0-7.2,5.84-4.9,13-4.9h15.63c7.2,0,4.9-2.3,4.9,4.9l8.14,19.59v10.82a24.91,24.91,0,0,1-11.25,20.85c-3.93,2.58-13.08,1.29-13.08,1.29Z"/><path class="cls-11" d="M266.79,177.94c0-7.2,2.3-4.9-4.9-4.9l-3.24,16.35v19A20,20,0,0,1,253.91,223c-6.77,7.63-16.81,6.35-17.59,6.23a25.38,25.38,0,0,0,9.85,3.79,29.63,29.63,0,0,0,3.83.3,24.93,24.93,0,0,0,24.93-24.93V197.53Z"/><path class="cls-12" d="M274.93,177.94a13,13,0,0,0-13-13H238.11a13,13,0,0,0-13,13v19.59a46.16,46.16,0,0,0,22.43-2.08,45,45,0,0,0,10.28-5.26,1.08,1.08,0,0,1,1.51.29,15.81,15.81,0,0,0,15.63,7Z"/><path class="cls-13" d="M261.89,164.89H245.6a13,13,0,0,1,13,13V190a1.06,1.06,0,0,1,.66.45,15.81,15.81,0,0,0,15.63,7V177.94a13,13,0,0,0-13-13Z"/><path class="cls-14" d="M305.41,131.36h66.86A12.66,12.66,0,0,1,384.93,144v28.85a12.66,12.66,0,0,1-12.65,12.65H334.74a3,3,0,0,0-2.09.86L320.43,198.6a1.69,1.69,0,0,1-2.88-1.19v-8.93a3,3,0,0,0-3-3h-9.19a12.66,12.66,0,0,1-12.65-12.65V144a12.66,12.66,0,0,1,12.65-12.66Z"/><path class="cls-13" d="M372.27,131.36H356A12.66,12.66,0,0,1,368.64,144v28.85A12.66,12.66,0,0,1,356,185.52h16.29a12.66,12.66,0,0,0,12.65-12.65V144a12.66,12.66,0,0,0-12.65-12.65Z"/><path d="M196.25,127.29a4.07,4.07,0,1,0,4.07,4.07A4.07,4.07,0,0,0,196.25,127.29Zm16.29,0a4.07,4.07,0,1,0,4.07,4.07A4.07,4.07,0,0,0,212.54,127.29Zm-32.58,0a4.07,4.07,0,1,0,4.07,4.07A4.07,4.07,0,0,0,180,127.29Zm192.31,0H340.4v-5.7A10.6,10.6,0,0,0,329.81,111H170.19a10.6,10.6,0,0,0-10.59,10.59v12.78H131.36A20.38,20.38,0,0,0,111,154.73V308.08a20.38,20.38,0,0,0,20.36,20.36h95.23l-3.1,23.05H219a8.44,8.44,0,0,0-8.11,6.17l-5.73,20.68A8.42,8.42,0,0,0,213.21,389h73.57a8.42,8.42,0,0,0,8.11-10.66l-5.74-20.68a8.44,8.44,0,0,0-8.11-6.17h-4.54l-3.1-23.05h95.23A20.38,20.38,0,0,0,389,308.08V144a16.75,16.75,0,0,0-16.73-16.73ZM167.75,151.72h66a4.07,4.07,0,0,0,0-8.14h-66v-22a2.45,2.45,0,0,1,2.44-2.44H329.81a2.45,2.45,0,0,1,2.44,2.44v5.7H305.41a16.74,16.74,0,0,0-16.72,16.29h-36a4.07,4.07,0,1,0,0,8.14h36v21.14a16.75,16.75,0,0,0,16.73,16.73h8.07v7.81a5.76,5.76,0,0,0,9.83,4.07l8.94-8.94V256.1a4.07,4.07,0,1,0,8.14,0V189.59h24.17V295.86H340.4V275.1a4.07,4.07,0,0,0-8.14,0v20.76h-32V271.77A26.49,26.49,0,0,0,283.39,247l-11-4.33a7.26,7.26,0,0,1-4.63-6.79v-4.6A29,29,0,0,0,279,208.34V177.94a17.14,17.14,0,0,0-17.12-17.12H238.11A17.14,17.14,0,0,0,221,177.94v30.41a29,29,0,0,0,11.25,22.91v4.6a7.26,7.26,0,0,1-4.63,6.79l-11,4.33a26.49,26.49,0,0,0-16.89,24.8v24.09h-32Zm104,128.8a4.07,4.07,0,0,0-4.07,4.07v11.26H232.3V284.6a4.07,4.07,0,1,0-8.14,0v11.26H207.87V271.77a18.39,18.39,0,0,1,11.73-17.22l10-3.94a29.13,29.13,0,0,0,40.77,0l10,3.94a18.39,18.39,0,0,1,11.73,17.22v24.09H275.84V284.6a4.07,4.07,0,0,0-4.07-4.07Zm-39.58-78.39a49.61,49.61,0,0,0,16.68-2.85,48.93,48.93,0,0,0,8.83-4.2,19.75,19.75,0,0,0,13.16,6.6v6.66a20.86,20.86,0,1,1-41.72,0V202c1,.06,2,.1,3.05.1Zm-3.05-8.26V177.94a9,9,0,0,1,9-9h23.78a9,9,0,0,1,9,9V193.5a11.63,11.63,0,0,1-3.39-1,11.86,11.86,0,0,1-4.76-4.2,5.15,5.15,0,0,0-7.23-1.43,40.93,40.93,0,0,1-9.35,4.79A41.78,41.78,0,0,1,229.14,193.88ZM263.38,246a21,21,0,0,1-26.75,0,15.37,15.37,0,0,0,3.76-10.11v-.15a28.92,28.92,0,0,0,19.22,0v.15A15.37,15.37,0,0,0,263.38,246Zm17.67,113.66a.27.27,0,0,1,.26.2h0L287,380.51a.3.3,0,0,1-.26.34H213.21a.3.3,0,0,1-.26-.34l5.74-20.68a.27.27,0,0,1,.26-.2h62.1Zm-49.35-8.14,3.1-23.05h30.39l3.1,23.05Zm149.15-43.41a12.23,12.23,0,0,1-12.22,12.22H131.36a12.23,12.23,0,0,1-12.22-12.22V154.73a12.23,12.23,0,0,1,12.22-12.22H159.6v8.14H133.53a6.25,6.25,0,0,0-6.24,6.24V297.76a6.25,6.25,0,0,0,6.24,6.24H366.47a6.25,6.25,0,0,0,6.24-6.24V189.58a16.62,16.62,0,0,0,8.14-2.37ZM159.6,158.8V295.86H135.43V158.8Zm221.25,14.06a8.59,8.59,0,0,1-8.58,8.58H334.73a7,7,0,0,0-5,2.06l-8.14,8.14v-3.18a7,7,0,0,0-7-7h-9.19a8.59,8.59,0,0,1-8.58-8.58V144a8.59,8.59,0,0,1,8.58-8.58h66.86a8.59,8.59,0,0,1,8.58,8.58ZM366.5,162.51H311.18a4.07,4.07,0,1,0,0,8.14H366.5a4.07,4.07,0,1,0,0-8.14Zm0-16.29H311.18a4.07,4.07,0,1,0,0,8.14H366.5a4.07,4.07,0,1,0,0-8.14Z"/></svg>