<svg id="Capa_1" enable-background="new 0 0 512.003 512.003" height="512" viewBox="0 0 512.003 512.003" width="512" xmlns="http://www.w3.org/2000/svg"><g><g clip-rule="evenodd" fill-rule="evenodd"><path d="m501.958 493.916-9.813-91.777c-.323-6.528-8.358-9.965-12.993-5.331l-10.223 10.224-122.635-122.636c-3.191-3.191-8.414-3.191-11.606 0l-50.292 50.292c-3.192 3.191-3.192 8.414 0 11.606l122.636 122.636-10.225 10.224c-4.372 4.368-1.543 12.262 4.904 12.948l92.085 9.845c4.7.568 8.667-3.279 8.162-8.031z" fill="#ffa76b"/><path d="m493.797 10.057-92.085 9.845c-6.447.685-9.276 8.579-4.904 12.947l10.225 10.224-122.637 122.637c-3.191 3.191-3.191 8.414 0 11.606l50.292 50.292c3.191 3.191 8.414 3.191 11.606 0l122.636-122.636 10.224 10.224c4.635 4.634 12.67 1.197 12.993-5.331l9.812-91.777c.504-4.752-3.463-8.6-8.162-8.031z" fill="#a0e4a5"/><path d="m10.044 18.087 9.812 91.777c.323 6.528 8.358 9.965 12.993 5.331l10.223-10.224 122.636 122.636c3.192 3.191 8.414 3.191 11.606 0l50.292-50.292c3.192-3.192 3.192-8.414 0-11.606l-122.635-122.635 10.224-10.224c4.373-4.368 1.543-12.262-4.904-12.947l-92.086-9.845c-4.699-.57-8.666 3.278-8.161 8.029z" fill="#ff7d95"/><path d="m18.206 501.946 92.086-9.845c6.447-.685 9.276-8.579 4.904-12.947l-10.224-10.224 122.636-122.636c3.191-3.191 3.191-8.414 0-11.606l-50.292-50.292c-3.191-3.191-8.414-3.191-11.606 0l-122.637 122.636-10.223-10.224c-4.635-4.635-12.67-1.197-12.993 5.331l-9.812 91.777c-.506 4.752 3.461 8.599 8.161 8.03z" fill="#a0c8ff"/></g><g><path d="m184.386 277.324c-7.1-7.098-18.649-7.097-25.748 0l-115.565 115.565-3.152-3.152c-4.909-4.909-12.027-6.388-18.579-3.861-6.514 2.512-10.978 8.542-11.452 15.426l-9.79 91.557c-.563 5.298 1.273 10.464 5.038 14.174 3.263 3.216 7.595 4.97 12.134 4.97.681 0 1.367-.04 2.054-.119l92.022-9.839c6.889-.732 12.608-5.264 14.925-11.827 2.276-6.444.739-13.395-4.007-18.135l-3.154-3.153 115.565-115.565c3.432-3.433 5.322-8.005 5.322-12.875s-1.891-9.441-5.323-12.874zm-86.487 184.534c-3.905 3.905-3.905 10.237 0 14.143l6.657 6.656-84.213 9.004 9.003-84.214 6.656 6.656c3.905 3.905 10.237 3.905 14.142 0l121.367-121.368 47.755 47.755z"/><path d="m327.617 234.678c3.433 3.432 8.005 5.322 12.874 5.322s9.441-1.89 12.874-5.322l115.565-115.564 3.153 3.153c4.907 4.908 12.027 6.387 18.577 3.861 6.515-2.512 10.979-8.542 11.454-15.425l9.789-91.561c.562-5.297-1.275-10.463-5.04-14.173-3.752-3.697-8.914-5.462-14.186-4.85l-92.023 9.839c-6.889.732-12.607 5.264-14.925 11.827-2.276 6.444-.739 13.394 4.007 18.135l3.153 3.153-115.563 115.564c-3.434 3.433-5.324 8.005-5.324 12.875s1.891 9.442 5.323 12.875zm86.486-184.533c1.875-1.875 2.929-4.419 2.929-7.071s-1.054-5.196-2.929-7.071l-6.657-6.656 84.215-9.003-9.004 84.214-6.656-6.656c-3.906-3.905-10.236-3.905-14.143 0l-121.367 121.366-47.756-47.755z"/><path d="m502.114 401.301c-.476-6.884-4.939-12.915-11.454-15.426-6.553-2.526-13.669-1.045-18.578 3.862l-3.152 3.152-115.565-115.565c-7.1-7.099-18.648-7.099-25.748 0l-50.291 50.291c-3.434 3.433-5.324 8.005-5.324 12.875s1.891 9.442 5.323 12.874l115.565 115.565-3.148 3.149c-4.751 4.745-6.288 11.695-4.013 18.139 2.318 6.563 8.037 11.096 14.919 11.827l92.03 9.84c.688.08 1.373.119 2.054.119 4.537 0 8.869-1.754 12.132-4.969 3.765-3.709 5.602-8.875 5.039-14.182zm-94.667 81.356 6.656-6.656c3.905-3.905 3.905-10.237 0-14.143l-121.367-121.368 47.755-47.755 121.367 121.368c3.906 3.905 10.236 3.906 14.143 0l6.656-6.656 9.004 84.214z"/><path d="m205.182 129.142c-3.905-3.905-10.237-3.905-14.143 0s-3.905 10.237 0 14.143l28.229 28.228-47.755 47.755-121.369-121.368c-1.875-1.875-4.419-2.929-7.071-2.929s-5.196 1.054-7.071 2.929l-6.655 6.656-9.004-84.214 84.214 9.003-6.657 6.657c-1.875 1.875-2.929 4.419-2.929 7.071s1.054 5.196 2.929 7.071l29.5 29.5c3.905 3.905 10.237 3.905 14.143 0s3.905-10.237 0-14.143l-22.429-22.429 3.149-3.149c4.75-4.745 6.287-11.695 4.011-18.139-2.317-6.563-8.037-11.095-14.919-11.827l-92.027-9.837c-5.27-.612-10.437 1.152-14.19 4.85-3.765 3.71-5.601 8.876-5.037 14.18l9.789 91.551c.475 6.884 4.938 12.914 11.452 15.426 6.551 2.527 13.67 1.047 18.58-3.861l3.152-3.152 115.564 115.564c3.433 3.432 8.004 5.322 12.875 5.322 4.87 0 9.441-1.89 12.874-5.322l50.292-50.292c7.098-7.099 7.098-18.649 0-25.748z"/><path d="m166.289 114.391h.007c5.523 0 9.996-4.477 9.996-10s-4.48-10-10.003-10-10 4.477-10 10 4.477 10 10 10z"/></g></g></svg>