<svg id="Layer_35" enable-background="new 0 0 64 64" height="512" viewBox="0 0 64 64" width="512" xmlns="http://www.w3.org/2000/svg"><path d="m16 2h46v30h-46z" fill="#e6e9ed"/><path d="m26 8v2h-4c-1.1 0-2-.9-2-2 0-.55.22-1.05.59-1.41.36-.37.86-.59 1.41-.59h2c1.1 0 2 .9 2 2z" fill="#ffeaa7"/><path d="m56 24c1.1 0 2 .9 2 2 0 .55-.22 1.05-.59 1.41-.36.37-.86.59-1.41.59h-2c-1.1 0-2-.9-2-2v-2z" fill="#ffeaa7"/><path d="m50 17h-11v-11c6.08 0 11 4.92 11 11z" fill="#ecc19c"/><path d="m39 17h11c0 3.04-1.23 5.79-3.22 7.78z" fill="#b4dd7f"/><path d="m39 17 7.78 7.78c-1.99 1.99-4.74 3.22-7.78 3.22-3.55 0-6.71-1.68-8.72-4.3l4.65-3.01c.67-.43 1.07-1.17 1.07-1.96v-.39c0-1.29-1.05-2.34-2.34-2.34-.43 0-.86.12-1.22.35l-4.26 2.62c-.12-.64-.18-1.3-.18-1.97 0-6.08 4.92-11 11-11z" fill="#ff826e"/><path d="m52 48c5.52 0 10 4.48 10 10v4h-5-10-5v-4c0-2.76 1.12-5.26 2.93-7.07s4.31-2.93 7.07-2.93z" fill="#e6e9ed"/><path d="m37 62h-10-5v-4c0-2.76 1.12-5.26 2.93-7.07s4.31-2.93 7.07-2.93c5.52 0 10 4.48 10 10v4z" fill="#4fc1e9"/><path d="m13 41v18c0 1.66-1.34 3-3 3-.83 0-1.58-.34-2.12-.88s-.88-1.29-.88-2.12v-15-3z" fill="#cf9e76"/><path d="m19 41v18c0 .83-.34 1.58-.88 2.12s-1.29.88-2.12.88c-1.66 0-3-1.34-3-3v-18z" fill="#cf9e76"/><path d="m19.45 32c-.29.7-.45 1.47-.45 2.26v6.74h-6-6v3h-2c-1.66 0-3-1.34-3-3v-7c0-5.44 4.34-9.86 9.75-9.99l-.75 8.99 2 2 2-2-.75-9h4.05c1.11 0 2.2-.31 3.15-.89l6.73-4.14 4.26-2.62c.36-.23.79-.35 1.22-.35 1.29 0 2.34 1.05 2.34 2.34v.39c0 .79-.4 1.53-1.07 1.96l-4.65 3.01-8.54 5.53c-1.05.67-1.84 1.65-2.29 2.77z" fill="#fcd770"/><path d="m14.25 24 .75 9-2 2-2-2 .75-8.99v-.01h.25 1z" fill="#e6e9ed"/><g fill="#f0d0b4"><circle cx="52" cy="42" r="6"/><circle cx="32" cy="42" r="6"/><path d="m19 18c0 3.31-2.69 6-6 6s-6-2.69-6-6 2.69-6 6-6c1.1 0 2.12.29 3 .81 1.79 1.03 3 2.97 3 5.19z"/></g><path d="m15 1v10.295c-.634-.19-1.305-.295-2-.295-3.859 0-7 3.14-7 7 0 2.237 1.058 4.226 2.696 5.509-4.456 1.406-7.696 5.577-7.696 10.491v7c0 2.206 1.794 4 4 4h1v14c0 2.206 1.794 4 4 4 1.201 0 2.266-.542 3-1.382.734.84 1.799 1.382 3 1.382 2.206 0 4-1.794 4-4v-24.735c0-.433.056-.857.162-1.265h42.838v-32zm-7 17c0-2.757 2.243-5 5-5s5 2.243 5 5-2.243 5-5 5-5-2.243-5-5zm5.965 14.621-.965.965-.965-.965.635-7.621h.33.33zm-8.965 10.379c-1.103 0-2-.897-2-2v-7c0-4.504 3.329-8.235 7.654-8.888l-.69 8.267 3.036 3.035 3.035-3.035-.699-8.379h2.965c1.297 0 2.565-.359 3.669-1.039l10.99-6.763c.212-.13.454-.198.702-.198.737 0 1.338.601 1.338 1.338v.39c0 .456-.229.875-.611 1.124l-13.192 8.536c-2.002 1.295-3.197 3.492-3.197 5.877v5.735h-10v-8h-2v11zm24-26c0-5.177 3.954-9.446 9-9.949v10.363l7.324 7.324c-1.725 1.412-3.927 2.262-6.324 2.262-2.762 0-5.336-1.113-7.216-3.081l3.691-2.388c.955-.618 1.525-1.666 1.525-2.803v-.39c0-1.84-1.497-3.338-3.338-3.338-.618 0-1.224.171-1.75.495l-2.9 1.784c-.002-.093-.012-.186-.012-.279zm17.738 6.324-5.324-5.324h7.535c-.2 2.008-.998 3.843-2.211 5.324zm-6.738-7.324v-8.949c4.717.471 8.479 4.232 8.949 8.949zm-30 45c-1.103 0-2-.897-2-2v-17h4v17c0 1.103-.897 2-2 2zm6 0c-1.103 0-2-.897-2-2v-17h4v17c0 1.103-.897 2-2 2zm45-30h-39.78c.306-.354.659-.672 1.063-.934l7.807-5.052c2.276 2.536 5.467 3.986 8.91 3.986 6.617 0 12-5.383 12-12s-5.383-12-12-12-12 5.383-12 12c0 .487.04.974.099 1.457l-6.177 3.801c-.788.486-1.694.742-2.62.742h-.412c1.3-1.272 2.11-3.042 2.11-5 0-2.373-1.189-4.47-3-5.736v-9.264h44z"/><path d="m55.975 47.755c1.825-1.265 3.025-3.372 3.025-5.755 0-3.859-3.141-7-7-7s-7 3.141-7 7c0 2.383 1.2 4.49 3.025 5.755-2.673 1.041-4.837 3.093-6.025 5.689-1.188-2.596-3.352-4.649-6.025-5.689 1.825-1.265 3.025-3.372 3.025-5.755 0-3.859-3.141-7-7-7s-7 3.141-7 7c0 2.383 1.2 4.49 3.025 5.755-4.104 1.598-7.025 5.582-7.025 10.245v5h20 2 20v-5c0-4.663-2.921-8.647-7.025-10.245zm-8.975-5.755c0-2.757 2.243-5 5-5s5 2.243 5 5-2.243 5-5 5-5-2.243-5-5zm-20 0c0-2.757 2.243-5 5-5s5 2.243 5 5-2.243 5-5 5-5-2.243-5-5zm14 19h-3v-8h-2v8h-8v-8h-2v8h-3v-3c0-4.963 4.037-9 9-9s9 4.037 9 9zm20 0h-3v-8h-2v8h-8v-8h-2v8h-3v-3c0-4.963 4.037-9 9-9s9 4.037 9 9z"/><path d="m56 23h-5v3c0 1.654 1.346 3 3 3h2c1.654 0 3-1.346 3-3s-1.346-3-3-3zm0 4h-2c-.552 0-1-.449-1-1v-1h3c.552 0 1 .449 1 1s-.448 1-1 1z"/><path d="m22 11h5v-3c0-1.654-1.346-3-3-3h-2c-1.654 0-3 1.346-3 3s1.346 3 3 3zm0-4h2c.552 0 1 .449 1 1v1h-3c-.552 0-1-.449-1-1s.448-1 1-1z"/><path d="m53 5h6v2h-6z"/><path d="m53 9h6v2h-6z"/><path d="m53 13h6v2h-6z"/><path d="m53 17h6v2h-6z"/></svg>