<svg height="496pt" viewBox="0 0 496 496" width="496pt" xmlns="http://www.w3.org/2000/svg"><path d="m152 440h192v48h-192zm0 0" fill="#838f9b"/><path d="m488 392v16c0 17.679688-14.320312 32-32 32h-416c-17.679688 0-32-14.320312-32-32v-16zm0 0" fill="#aab2bd"/><path d="m456 136h-416c-17.679688 0-32 14.320312-32 32v224h480v-224c0-17.679688-14.320312-32-32-32zm0 0" fill="#69d6f4"/><path d="m432 296v32c0 8.800781-3.601562 16.800781-9.359375 22.640625-5.839844 5.757813-13.839844 9.359375-22.640625 9.359375-17.679688 0-32-14.320312-32-32v-32zm0 0" fill="#e6e9ed"/><path d="m400 72v224h-32v-224zm0 0" fill="#ff826e"/><path d="m432 136v160h-32v-224h32zm0 0" fill="#fcd770"/><path d="m410.800781 15.519531 21.199219 56.480469h-64l21.199219-56.480469c1.679687-4.558593 6-7.519531 10.800781-7.519531s9.121094 2.960938 10.800781 7.519531zm0 0" fill="#969faa"/><path d="m320 136v224h-256v-352h256zm0 0" fill="#e6e9ed"/><path d="m96 256h112v72h-112zm0 0" fill="#cf9e76"/><path d="m272 200.160156v15.839844h-160v-15.839844c0-14.320312 9.441406-26.878906 23.199219-30.800781l32.800781-9.359375c0 13.28125 10.71875 24 24 24s24-10.71875 24-24l32.800781 9.359375c13.757813 3.921875 23.199219 16.480469 23.199219 30.800781zm0 0" fill="#fcd770"/><path d="m216 145.519531v14.480469c0 13.28125-10.71875 24-24 24s-24-10.71875-24-24v-14.480469c7.039062 4.160157 15.199219 6.480469 24 6.480469s16.960938-2.320312 24-6.480469zm0 0" fill="#f0d0b4"/><path d="m240 88v16c0 17.761719-9.679688 33.28125-24 41.519531-7.039062 4.160157-15.199219 6.480469-24 6.480469s-16.960938-2.320312-24-6.480469c-14.320312-8.238281-24-23.757812-24-41.519531v-16c0-26.480469 21.519531-48 48-48 13.28125 0 25.28125 5.359375 33.921875 14.078125 8.71875 8.640625 14.078125 20.640625 14.078125 33.921875zm0 0" fill="#f0d0b4"/><path d="m456 128h-16v-57.457031l-21.695312-57.855469c-2.839844-7.582031-10.199219-12.6875-18.304688-12.6875s-15.464844 5.105469-18.304688 12.679688l-21.695312 57.863281v57.457031h-32v-128h-272v128h-16c-22.054688 0-40 17.945312-40 40v240c0 22.054688 17.945312 40 40 40h104v32h-32v16h272v-16h-32v-32h104c22.054688 0 40-17.945312 40-40v-240c0-22.054688-17.945312-40-40-40zm-64-48v208h-16v-208zm-16 224h48v24c0 13.230469-10.769531 24-24 24s-24-10.769531-24-24zm48-16h-16v-208h16zm-27.320312-269.703125c1.03125-2.753906 5.601562-2.761719 6.632812.007813l17.144531 45.695312h-40.914062zm-324.679688-2.296875h240v336h-240zm-32 128h16v224h272v-224h32v184c0 22.054688 17.945312 40 40 40s40-17.945312 40-40v-184h16c13.230469 0 24 10.769531 24 24v216h-464v-216c0-13.230469 10.769531-24 24-24zm296 336h-176v-32h176zm120-48h-416c-13.230469 0-24-10.769531-24-24v-8h464v8c0 13.230469-10.769531 24-24 24zm0 0"/><path d="m280 200.144531c0-17.761719-11.929688-33.578125-29.007812-38.472656l-26.992188-7.710937v-4.074219c14.488281-10.132813 24-26.910157 24-45.886719v-16c0-30.871094-25.121094-56-56-56s-56 25.128906-56 56v16c0 18.976562 9.511719 35.761719 24 45.886719v4.074219l-26.992188 7.71875c-17.078124 4.878906-29.007812 20.703124-29.007812 38.464843v23.855469h176zm-104-42.503906c5.070312 1.519531 10.441406 2.359375 16 2.359375s10.929688-.839844 16-2.359375v2.359375c0 8.824219-7.175781 16-16 16s-16-7.175781-16-16zm-24-53.640625v-16c0-22.054688 17.945312-40 40-40s40 17.945312 40 40v16c0 22.054688-17.945312 40-40 40s-40-17.945312-40-40zm112 104h-144v-7.855469c0-10.65625 7.160156-20.152343 17.40625-23.082031l24.386719-6.964844c4.246093 12.6875 16.109375 21.902344 30.207031 21.902344s25.960938-9.222656 30.207031-21.902344l24.386719 6.957032c10.246094 2.9375 17.40625 12.433593 17.40625 23.089843zm0 0"/><path d="m232 256h64v16h-64zm0 0"/><path d="m232 288h64v16h-64zm0 0"/><path d="m232 320h64v16h-64zm0 0"/><path d="m88 336h128v-88h-128zm16-72h96v56h-96zm0 0"/></svg>