<svg id="Capa_1" data-name="Capa 1" xmlns="http://www.w3.org/2000/svg" viewBox="0 0 500 500"><defs><style>.cls-1{fill:#34668a;}.cls-2{fill:#ebbe48;}</style></defs><title>descuentos</title><path class="cls-1" d="M395.61,250c0,6.94-7,14.46-18.82,27.54-12.65,14-8.18,25.51-8.48,43.84-.5,30.95-38.49,12.54-54.11,39.77-9.54,16.63-16,28.84-32.28,23.61-17.07-5.48-21.49-10.14-31.92-10.14s-14.85,4.67-31.92,10.14c-16.31,5.23-22.75-7-32.28-23.61-15.62-27.23-53.6-8.83-54.11-39.77-.3-18.33,4.17-29.87-8.48-43.84-11.84-13.08-18.84-20.59-18.82-27.53s7-14.46,18.82-27.53c12.65-14,6.4-25.52,6.7-43.84.51-30.94,40.27-12.54,55.89-39.77,9.54-16.62,16-28.84,32.28-23.6,17.07,5.47,21.49,10.14,31.92,10.14s14.85-4.68,31.92-10.14c16.31-5.23,22.75,7,32.28,23.6,15.62,27.23,53.6,8.83,54.11,39.77.3,18.33-4.17,29.87,8.48,43.84C388.63,235.52,395.62,243,395.61,250Z"/><path class="cls-2" d="M250,155.44a94.7,94.7,0,1,0,94.7,94.7A94.81,94.81,0,0,0,250,155.44Z"/><path d="M184.89,262a5.92,5.92,0,1,1-5.92-5.92A5.92,5.92,0,0,1,184.89,262Z"/><path d="M118.82,281.48c8.13,9,7.79,16.14,7.23,28-.17,3.56-.36,7.59-.29,12,.35,21.14,15.84,24.65,28.29,27.48,10.59,2.4,20.6,4.68,26.6,15.14,10.27,18.23,19,32.78,39.22,26.3,6.87-2.2,11.78-4.29,15.72-6,5.93-2.52,9.2-3.9,14.39-3.9s8.46,1.39,14.39,3.9c3.95,1.67,8.86,3.76,15.73,6,9.6,3.08,17.39,1.4,24-4.44,6.06-5.36,10.79-14.12,15.22-21.86,6-10.46,16-12.74,26.6-15.14,12.45-2.82,27.95-6.34,28.29-27.48.07-4.37-.12-8.4-.28-12-.56-11.87-.89-19,7.23-28,12.34-13.62,20.36-22.11,20.35-31.51,0-10-9.86-19.92-20.35-31.5-8.13-9-7.79-16.14-7.23-28,.17-3.56.36-7.59.28-12-.34-21.13-15.84-24.65-28.29-27.48-10.59-2.4-20.6-4.68-26.6-15.14-4.45-7.77-9.22-16.55-15.23-21.86-6.78-6-14.63-7.44-24-4.44-6.87,2.2-11.79,4.29-15.74,6-5.93,2.51-9.19,3.9-14.37,3.9s-8.45-1.39-14.38-3.9c-3.95-1.68-8.86-3.76-15.74-6-9.37-3-17.22-1.56-24,4.43-6.06,5.36-10.8,14.13-15.23,21.86-6,10.46-16.4,12.74-27.41,15.14-12.88,2.82-28.92,6.33-29.26,27.48a130.05,130.05,0,0,0,.72,14.27c1,10.88,1.57,17.44-5.89,25.69C106.68,231.88,98.44,240.54,98.47,250,98.44,259.92,108,269.57,118.82,281.48Zm8.77-55.06c10.94-12.09,10-23.07,8.91-34.7a119.14,119.14,0,0,1-.68-13c.18-11.31,6.25-13.11,20-16.1,11.82-2.59,26.53-5.8,35.15-20.82,8.7-14.14,12.61-25,25.34-20.92,6.36,2,10.8,3.92,14.73,5.59,6.37,2.7,11.4,4.84,19,4.84s12.62-2.14,19-4.84c3.92-1.66,8.37-3.55,14.73-5.59,12.71-4.07,16.51,6.56,25.34,20.92,8.59,15,22.82,18.2,34.25,20.8,13.43,3,18.88,4.74,19.07,16.13.06,4-.11,7.66-.27,11.21-.58,12.29-1.12,23.91,10.28,36.51,8.73,9.64,17.3,18.73,17.29,23.53v0c0,5.2-10.21,15.74-17.29,23.55C361,286.13,361.54,297.74,362.12,310c.17,3.55.34,7.22.27,11.21-.19,11.39-5.64,13.08-19.07,16.13-11.43,2.59-25.66,5.82-34.25,20.8l-.8,1.39c-10,17.49-14.12,22.86-24.54,19.53-6.35-2-10.8-3.92-14.72-5.59-6.38-2.71-11.41-4.84-19-4.84s-12.64,2.14-19,4.84c-3.92,1.66-8.36,3.55-14.71,5.58-12.68,4.06-16.46-6.48-25.34-20.92-8.59-15-22.82-18.2-34.25-20.79-13.43-3-18.89-4.74-19.08-16.13-.06-4,.11-7.66.28-11.2.58-12.3,1.13-23.91-10.28-36.51-8-8.8-17.3-18.58-17.29-23.58C110.29,244.77,120.54,234.21,127.6,226.42Z"/><path d="M226.32,208.71a17.76,17.76,0,1,0,17.76,17.76A17.78,17.78,0,0,0,226.32,208.71Zm0,23.68a5.92,5.92,0,1,1,5.92-5.92A5.93,5.93,0,0,1,226.32,232.39Z"/><path d="M255.92,273.82a17.76,17.76,0,1,0,17.76-17.76A17.78,17.78,0,0,0,255.92,273.82Zm23.68,0a5.92,5.92,0,1,1-5.92-5.92A5.93,5.93,0,0,1,279.59,273.82Z"/><path d="M223,290.58a5.92,5.92,0,0,0,8.21-1.64l47.35-71a5.92,5.92,0,0,0-9.85-6.57l-47.35,71A5.92,5.92,0,0,0,223,290.58Z"/><path d="M250,350.77A100.62,100.62,0,1,0,149.38,250.14,100.74,100.74,0,0,0,250,350.77Zm0-189.41a88.78,88.78,0,1,1-88.78,88.78A88.89,88.89,0,0,1,250,161.36Z"/><path d="M239.14,185.94a5.92,5.92,0,0,0-2-11.67,76.94,76.94,0,0,0-63.06,63.07,5.92,5.92,0,1,0,11.67,2A65.09,65.09,0,0,1,239.14,185.94Z"/></svg>