<svg height="512pt" viewBox="-17 0 512 512.0134" width="512pt" xmlns="http://www.w3.org/2000/svg"><path d="m88.328125 110.851562c-28.191406 1.535157-52.34375-19.949218-54.101563-48.125-.792968-13.558593 3.832032-26.875 12.859376-37.019531 9.023437-10.148437 21.710937-16.292969 35.265624-17.082031 1.9375-.101562 3.875-.074219 5.804688.082031 27.121094 1.445313 48.386719 23.832031 48.433594 50.992188.046875 27.160156-21.144532 49.621093-48.261719 51.152343zm0 0" fill="#bfa885"/><path d="m62.726562 102.320312c-1.933593.097657-3.871093.070313-5.800781-.085937-18.316406-12.191406-26.777343-34.734375-21.007812-55.964844 5.765625-21.234375 24.46875-36.394531 46.433593-37.644531 1.9375-.101562 3.875-.074219 5.804688.082031 18.3125 12.195313 26.773438 34.734375 21.007812 55.96875-5.769531 21.230469-24.472656 36.394531-46.4375 37.644531zm0 0" fill="#ffe0b2"/><path d="m241.925781 110.851562c-28.1875 1.535157-52.34375-19.949218-54.101562-48.125-.792969-13.558593 3.832031-26.875 12.859375-37.019531 9.027344-10.148437 21.714844-16.292969 35.269531-17.082031 1.933594-.101562 3.871094-.074219 5.804687.082031 27.121094 1.445313 48.386719 23.832031 48.433594 50.992188.042969 27.160156-21.148437 49.621093-48.265625 51.152343zm0 0" fill="#bfa885"/><path d="m216.328125 102.320312c-1.933594.097657-3.875.070313-5.804687-.085937-18.3125-12.191406-26.773438-34.734375-21.007813-55.964844 5.769531-21.234375 24.472656-36.394531 46.4375-37.644531 1.933594-.101562 3.871094-.074219 5.804687.082031 18.3125 12.195313 26.773438 34.734375 21.003907 55.96875-5.765625 21.230469-24.46875 36.394531-46.433594 37.644531zm0 0" fill="#ffe0b2"/><g fill="#4527a0"><path d="m304.988281 170.679688c-11.117187-16.074219-29.4375-25.648438-48.980469-25.601563h-34.132812c-19.546875-.046875-37.867188 9.527344-48.984375 25.601563l-2.21875 76.800781h128zm0 0"/><path d="m151.386719 170.679688c-11.117188-16.074219-29.433594-25.648438-48.980469-25.601563h-34.132812c-32.988282 0-59.734376 26.746094-59.734376 59.734375v25.601562c.027344 9.414063 7.652344 17.039063 17.066407 17.066407h59.734375zm0 0"/><path d="m392.539062 247.480469h59.734376c9.414062-.027344 17.039062-7.652344 17.066406-17.066407v-25.601562c0-32.988281-26.742188-59.734375-59.734375-59.734375h-34.132813c-19.546875-.046875-37.863281 9.527344-48.980468 25.601563zm0 0"/></g><path d="m395.527344 110.863281c-11.121094.664063-22.152344-2.332031-31.402344-8.535156 0-.046875-.039062-.085937-.085938-.085937l-19.796874-59.390626c6.773437-19.535156 24.667968-33.050781 45.3125-34.21875 1.933593-.101562 3.871093-.074218 5.800781.085938 27.121093 1.441406 48.386719 23.828125 48.433593 50.988281.046876 27.164063-21.144531 49.621094-48.261718 51.15625zm0 0" fill="#bfa885"/><path d="m369.925781 102.328125c-1.960937.085937-3.925781.085937-5.800781 0 0-.046875-.039062-.085937-.085938-.085937l-19.796874-59.390626c6.773437-19.535156 24.667968-33.050781 45.3125-34.21875 1.933593-.101562 3.871093-.074218 5.800781.085938 18.3125 12.191406 26.773437 34.734375 21.007812 55.964844-5.769531 21.230468-24.472656 36.394531-46.4375 37.644531zm0 0" fill="#ffe0b2"/><path d="m165.125 136.460938c-28.1875 1.535156-52.339844-19.949219-54.101562-48.128907-.789063-13.554687 3.835937-26.871093 12.859374-37.015625 9.027344-10.148437 21.714844-16.292968 35.269532-17.085937 1.933594-.097657 3.875-.070313 5.804687.085937 27.121094 1.441406 48.386719 23.832032 48.433594 50.992188.042969 27.160156-21.148437 49.621094-48.265625 51.152344zm0 0" fill="#bfa885"/><path d="m318.726562 136.460938c-28.191406 1.535156-52.34375-19.949219-54.101562-48.128907-.792969-13.554687 3.832031-26.871093 12.859375-37.015625 9.027344-10.148437 21.710937-16.292968 35.269531-17.085937 1.933594-.097657 3.871094-.070313 5.800782.085937 27.125 1.441406 48.390624 23.832032 48.433593 50.992188.046875 27.160156-21.144531 49.621094-48.261719 51.152344zm0 0" fill="#bfa885"/><path d="m139.527344 127.929688c-1.933594.097656-3.875.070312-5.804688-.085938-18.3125-12.195312-26.773437-34.734375-21.003906-55.96875 5.765625-21.230469 24.46875-36.390625 46.433594-37.644531 1.933594-.097657 3.875-.070313 5.804687.085937 18.3125 12.195313 26.773438 34.734375 21.007813 55.96875-5.769532 21.230469-24.472656 36.390625-46.4375 37.644532zm0 0" fill="#ffe0b2"/><path d="m293.125 127.929688c-1.933594.097656-3.871094.070312-5.800781-.085938-18.3125-12.195312-26.773438-34.734375-21.007813-55.96875 5.769532-21.230469 24.472656-36.390625 46.4375-37.644531 1.933594-.097657 3.871094-.070313 5.800782.085937 18.316406 12.195313 26.777343 34.734375 21.007812 55.96875-5.765625 21.230469-24.46875 36.390625-46.4375 37.644532zm0 0" fill="#ffe0b2"/><path d="m298.671875 170.679688h34.136719c32.988281 0 59.730468 26.742187 59.730468 59.734374v25.597657c0 9.425781-7.640624 17.066406-17.066406 17.066406h-119.464844c-9.425781 0-17.066406-7.640625-17.066406-17.066406v-25.597657c0-32.992187 26.742188-59.734374 59.730469-59.734374zm0 0" fill="#ad1457"/><path d="m187.738281 273.078125h34.136719c9.414062-.027344 17.035156-7.652344 17.066406-17.066406v-25.597657c0-32.992187-26.746094-59.734374-59.734375-59.734374h-34.132812c-32.992188 0-59.734375 26.742187-59.734375 59.734374v25.597657c.027344 9.414062 7.652344 17.039062 17.066406 17.066406zm0 0" fill="#ad1457"/><path d="m298.671875 170.679688c32.992187 0 59.734375 26.742187 59.734375 59.734374v25.597657c0 9.425781-7.640625 17.066406-17.066406 17.066406h-85.332032c-9.425781 0-17.066406-7.640625-17.066406-17.066406v-25.597657c0-32.992187 26.742188-59.734374 59.730469-59.734374zm0 0" fill="#e91e63"/><path d="m164.980469 273.078125h26.546875c8.296875-1.191406 14.164062-8.730469 13.28125-17.066406v-25.597657c0-33.023437-20.773438-59.734374-46.457032-59.734374h-26.554687c-25.6875 0-46.457031 26.710937-46.457031 59.734374v25.597657c-.882813 8.335937 4.984375 15.875 13.277344 17.066406zm0 0" fill="#e91e63"/><path d="m309.511719 321.976562c-4.007813-4-9.441407-6.238281-15.105469-6.230468-2.601562.003906-5.175781.496094-7.59375 1.453125-8.28125 3.105469-13.761719 11.035156-13.738281 19.878906v-8.53125c.007812-5.660156-2.230469-11.09375-6.230469-15.105469-1.882812-1.847656-4.078125-3.347656-6.484375-4.4375-2.726563-1.164062-5.65625-1.773437-8.621094-1.789062-2.597656 0-5.175781.492187-7.59375 1.449218-8.28125 3.109376-13.761719 11.035157-13.738281 19.882813v-8.535156c.011719-5.660157-2.230469-11.09375-6.230469-15.101563-1.882812-1.847656-4.078125-3.351562-6.484375-4.4375-2.722656-1.167968-5.65625-1.777344-8.617187-1.792968-2.601563.003906-5.175781.496093-7.59375 1.449218-8.285157 3.109375-13.761719 11.039063-13.742188 19.882813v-85.332031c.015625-5.933594-2.441406-11.605469-6.78125-15.65625-4.335937-4.046876-10.167969-6.105469-16.085937-5.675782-2.105469.128906-4.179688.589844-6.144532 1.363282-8.375 3.78125-13.726562 12.148437-13.652343 21.335937v131.070313c-.015625 3.453124-2.105469 6.554687-5.300781 7.863281-3.195313 1.304687-6.863282.5625-9.292969-1.890625l-8.445313-8.445313c-1.003906-1.003906-2.089844-1.914062-3.246094-2.734375-3.503906-2.28125-7.59375-3.496094-11.773437-3.496094-2.4375.015626-4.859375.417969-7.167969 1.195313-3.472656 1.230469-6.558594 3.351563-8.960937 6.144531-7.238281 9.003906-6.386719 22.050782 1.960937 30.035156l20.054688 20.054688c16.886718 17.554688 32.324218 36.445312 46.164062 56.488281 14.105469 19.460938 36.640625 31.03125 60.671875 31.148438h21.335938c41.230469-.015625 74.652343-33.4375 74.664062-74.667969v-91.734375c.011719-5.660156-2.230469-11.09375-6.226562-15.101563zm0 0" fill="#bfa885"/><path d="m290.140625 328.632812v91.734376c-.015625 41.230468-33.4375 74.652343-74.667969 74.664062h-21.332031c-3.398437.003906-6.792969-.253906-10.15625-.765625-9.875-5.308594-18.398437-12.8125-24.917969-21.933594-13.839844-20.042969-29.277344-38.933593-46.164062-56.488281l-20.054688-20.054688c-8.347656-7.984374-9.199218-21.03125-1.960937-30.035156 2.402343-2.792968 5.488281-4.914062 8.960937-6.144531 2.308594-.777344 4.730469-1.179687 7.167969-1.195313 4.179687 0 8.269531 1.214844 11.773437 3.496094 1.15625.820313 2.242188 1.730469 3.246094 2.734375l8.445313 8.445313c2.429687 2.453125 6.097656 3.195312 9.292969 1.890625 3.195312-1.308594 5.285156-4.410157 5.300781-7.863281v-131.070313c-.074219-9.1875 5.277343-17.554687 13.652343-21.335937 2.222657 3.433593 3.40625 7.433593 3.414063 11.519531v85.335937c0-11.78125 9.550781-21.335937 21.332031-21.335937 1.433594.011719 2.859375.15625 4.265625.429687v29.351563c-.019531-8.84375 5.457031-16.773438 13.742188-19.882813 2.417969-.953125 4.992187-1.445312 7.59375-1.449218 2.960937.015624 5.894531.625 8.617187 1.792968 2.40625 1.085938 4.601563 2.589844 6.484375 4.4375 4 4.007813 6.242188 9.441406 6.230469 15.101563v8.535156c-.023438-8.847656 5.457031-16.773437 13.738281-19.882813 2.417969-.957031 4.996094-1.449218 7.59375-1.449218 2.964844.015625 5.894531.625 8.621094 1.789062 2.40625 1.089844 4.601563 2.589844 6.484375 4.4375 4 4.011719 6.238281 9.445313 6.230469 15.105469v8.53125c-.023438-8.84375 5.457031-16.773437 13.738281-19.878906 2.195312 3.40625 3.351562 7.378906 3.328125 11.433593zm0 0" fill="#ffe0b2"/><path d="m187.738281 384.011719c-4.710937 0-8.53125-3.820313-8.53125-8.53125v-42.667969c0-4.710938 3.820313-8.53125 8.53125-8.53125 4.714844 0 8.535157 3.820312 8.535157 8.53125v42.667969c0 4.710937-3.820313 8.53125-8.535157 8.53125zm0 0" fill="#f09372"/><path d="m230.40625 384.011719c-4.710938 0-8.53125-3.820313-8.53125-8.53125v-42.667969c0-4.710938 3.820312-8.53125 8.53125-8.53125 4.714844 0 8.535156 3.820312 8.535156 8.53125v42.667969c0 4.710937-3.820312 8.53125-8.535156 8.53125zm0 0" fill="#f09372"/><path d="m273.074219 384.011719c-4.714844 0-8.535157-3.820313-8.535157-8.53125v-34.132813c0-4.714844 3.820313-8.535156 8.535157-8.535156 4.710937 0 8.53125 3.820312 8.53125 8.535156v34.132813c0 4.710937-3.820313 8.53125-8.53125 8.53125zm0 0" fill="#f09372"/><path d="m85.339844 119.480469c1.144531 0 2.296875 0 3.414062-.09375 7.285156-.425781 14.425782-2.203125 21.058594-5.25 10.449219 19.089843 30.480469 30.953125 52.242188 30.941406 1.1875 0 2.378906 0 3.574218-.109375 20.5-1.164062 38.949219-12.820312 48.804688-30.832031 7.644531 3.511719 15.957031 5.332031 24.371094 5.34375 1.195312 0 2.386718-.035157 3.582031-.101563 7.285156-.425781 14.429687-2.203125 21.0625-5.25 10.441406 19.082032 30.457031 30.945313 52.207031 30.949219 1.183594 0 2.378906 0 3.574219-.109375 15.824219-.878906 30.640625-8.058594 41.140625-19.933594 2.953125-3.332031 5.53125-6.984375 7.679687-10.886718 7.648438 3.5 15.957031 5.320312 24.371094 5.332031 1.191406 0 2.398437 0 3.589844-.101563 28.664062-1.632812 52.109375-23.421875 55.835937-51.886718 3.722656-28.464844-13.324218-55.554688-40.601562-64.507813-27.277344-8.949219-57.0625 2.765625-70.929688 27.902344-15.605468-7.042969-33.480468-7.042969-49.085937 0-10.488281-19.046875-30.511719-30.88281275-52.257813-30.88281275s-41.769531 11.83593775-52.257812 30.88281275c-15.605469-7.042969-33.484375-7.042969-49.089844 0-11.164062-20.085938-32.8125-32.035157-55.757812-30.769531-32.25 1.890624-57.152344 29.074218-56.210938 61.367187.9375 32.289063 27.378906 57.984375 59.683594 57.996094zm304.699218-102.324219c17.238282-1.015625 33.386719 8.457031 40.914063 23.996094 7.523437 15.539062 4.941406 34.082031-6.542969 46.976562-12.640625 14.242188-33.214844 18.332032-50.34375 10.007813 4.664063-21.101563-2.464844-43.074219-18.628906-57.417969-.238281-.214844-.503906-.394531-.742188-.597656 6.851563-13.402344 20.3125-22.148438 35.34375-22.964844zm-76.800781 25.601562c.855469-.050781 1.707031-.078124 2.5625-.078124 23.394531 0 42.457031 18.777343 42.808594 42.167968s-18.136719 42.734375-41.523437 43.4375c-23.382813.699219-43-17.5-44.050782-40.871094-1.050781-23.371093 16.851563-43.257812 40.203125-44.65625zm-76.796875-25.601562c16.808594-.957031 32.601563 8.070312 40.308594 23.039062-14.179688 12.0625-21.832031 30.105469-20.648438 48.683594.203126 3.160156.652344 6.296875 1.347657 9.386719-5.011719 2.441406-10.460938 3.855469-16.027344 4.15625-7.234375.421875-14.453125-1.027344-20.964844-4.207031 4.695313-21.125-2.433593-43.136719-18.621093-57.496094-.238282-.214844-.503907-.394531-.742188-.597656 6.855469-13.40625 20.320312-22.152344 35.355469-22.964844zm-76.800781 25.601562c.851563-.050781 1.707031-.078124 2.558594-.078124 23.394531 0 42.457031 18.777343 42.8125 42.167968.351562 23.390625-18.140625 42.734375-41.523438 43.4375-23.386719.699219-43.003906-17.5-44.054687-40.871094-1.050782-23.371093 16.855468-43.257812 40.207031-44.65625zm-106.171875-11.382812c9.328125-10.492188 23.230469-15.710938 37.160156-13.953125 13.929688 1.753906 26.097656 10.261719 32.53125 22.742187-14.179687 12.058594-21.835937 30.105469-20.652344 48.679688.203126 3.160156.65625 6.300781 1.347657 9.386719-5.003907 2.441406-10.453125 3.855469-16.015625 4.15625-17.253906 1.035156-33.425782-8.441407-40.957032-24-7.53125-15.558594-4.929687-34.121094 6.585938-47.011719zm0 0"/><path d="m25.605469 256.011719h51.203125c0 14.140625 11.460937 25.601562 25.597656 25.601562h34.132812v85.460938l-8.414062-8.40625c-5.554688-5.664063-13.171875-8.835938-21.109375-8.789063-8.65625-.019531-16.894531 3.71875-22.582031 10.242188-10.203125 12.375-9.167969 30.515625 2.375 41.648437l20.019531 20.019531c16.59375 17.222657 31.753906 35.773438 45.328125 55.46875 15.648438 21.753907 40.785156 34.679688 67.582031 34.753907h19.203125c.359375-.046875.714844-.121094 1.066406-.210938.351563.089844.707032.164063 1.066407.210938 45.929687-.050781 83.148437-37.269531 83.199219-83.199219v-91.734375c.039062-11.195313-6.207032-21.464844-16.167969-26.578125-9.957031-5.117188-21.945313-4.210938-31.019531 2.34375-4.316407-7.042969-11.371094-11.96875-19.46875-13.589844-8.101563-1.617187-16.507813.214844-23.199219 5.058594-7.921875-13.019531-24.453125-17.859375-38.144531-11.171875v-11.527344h25.601562c6.316406-.023437 12.398438-2.394531 17.066406-6.65625 4.664063 4.261719 10.746094 6.632813 17.066406 6.65625h119.464844c14.140625 0 25.601563-11.460937 25.601563-25.601562h51.199219c14.136718 0 25.601562-11.460938 25.601562-25.597657v-25.601562c-.042969-37.683594-30.582031-68.222656-68.269531-68.265625h-34.132813c-20.671875.023437-40.214844 9.445313-53.109375 25.601563h-13.246093c-12.894532-16.15625-32.4375-25.578126-53.109376-25.601563h-34.132812c-20.671875.023437-40.210938 9.441406-53.105469 25.601563h-13.261719c-12.890624-16.160157-32.429687-25.578126-53.101562-25.601563h-34.132812c-37.683594.042969-68.2226568 30.582031-68.2656255 68.265625v25.601562c0 14.136719 11.4609375 25.597657 25.5976565 25.597657zm183.46875 51.203125c3.398437-.019532 6.664062 1.324218 9.070312 3.726562 2.40625 2.40625 3.746094 5.671875 3.730469 9.070313v55.46875c0 4.710937 3.820312 8.53125 8.53125 8.53125 4.714844 0 8.535156-3.820313 8.535156-8.53125v-46.933594c0-7.070313 5.730469-12.800781 12.796875-12.800781 7.070313 0 12.800781 5.730468 12.800781 12.800781v46.933594c0 4.710937 3.820313 8.53125 8.535157 8.53125 4.710937 0 8.53125-3.820313 8.53125-8.53125v-38.402344c0-7.066406 5.730469-12.796875 12.800781-12.796875s12.800781 5.730469 12.800781 12.796875v91.734375c-.042969 36.507812-29.625 66.09375-66.132812 66.132812-.359375.050782-.714844.121094-1.066407.214844-.351562-.09375-.707031-.164062-1.066406-.214844h-19.203125c-21.304687-.035156-41.300781-10.296874-53.757812-27.585937-14.097657-20.457031-29.855469-39.71875-47.113281-57.59375l-20.019532-20.019531c-5.152344-4.824219-5.828125-12.757813-1.570312-18.386719 2.363281-2.613281 5.683594-4.160156 9.207031-4.289063 3.519531-.125 6.945313 1.179688 9.492187 3.613282l8.464844 8.464844c4.875 4.90625 12.230469 6.378906 18.621094 3.734374 6.394531-2.640624 10.554688-8.882812 10.542969-15.800781v-131.035156c-.292969-7.054687 4.8125-13.179687 11.804687-14.167969 3.738282-.277344 7.414063 1.085938 10.066406 3.738282 2.402344 2.402343 3.746094 5.664062 3.730469 9.0625v140.800781c0 4.710937 3.820313 8.53125 8.53125 8.53125 4.714844 0 8.535157-3.820313 8.535157-8.53125v-55.46875c0-7.066407 5.730468-12.796875 12.800781-12.796875zm12.800781-42.667969h-25.601562v-29.867187c.03125-7.929688-3.113282-15.539063-8.730469-21.136719-6.125-6.132813-14.605469-9.3125-23.253907-8.730469-16.011718 1.515625-28.128906 15.152344-27.75 31.234375v28.5h-34.132812c-4.710938 0-8.53125-3.820313-8.53125-8.535156v-25.597657c.027344-28.265624 22.933594-51.171874 51.199219-51.199218h34.132812c28.265625.027344 51.171875 22.933594 51.199219 51.199218v25.597657c0 2.265625-.898438 4.433593-2.5 6.035156-1.597656 1.601563-3.769531 2.5-6.03125 2.5zm162.132812-8.535156c0 4.714843-3.820312 8.535156-8.535156 8.535156h-119.464844c-4.714843 0-8.535156-3.820313-8.535156-8.535156v-25.597657c.035156-28.265624 22.9375-51.167968 51.199219-51.199218h34.136719c28.261718.03125 51.164062 22.933594 51.199218 51.199218zm25.597657-102.398438c28.265625.027344 51.171875 22.933594 51.203125 51.199219v25.601562c0 4.710938-3.824219 8.53125-8.535156 8.53125h-51.199219v-8.53125c-.058594-32.78125-23.375-60.910156-55.578125-67.039062 8.714844-6.332031 19.207031-9.75 29.976562-9.761719zm-153.597657 0c10.769532.011719 21.261719 3.429688 29.976563 9.761719-19.960937 3.808594-37.195313 16.289062-47.042969 34.066406-9.847656-17.773437-27.078125-30.257812-47.035156-34.066406 8.707031-6.332031 19.199219-9.75 29.96875-9.761719zm-238.933593 51.199219c.027343-28.265625 22.933593-51.171875 51.199219-51.199219h34.132812c10.769531.011719 21.257812 3.429688 29.96875 9.761719-32.199219 6.128906-55.515625 34.257812-55.566406 67.039062v8.53125h-51.203125c-4.710938 0-8.53125-3.820312-8.53125-8.53125zm0 0"/><path d="m213.339844 477.878906h34.132812c4.714844 0 8.535156-3.820312 8.535156-8.53125 0-4.714844-3.820312-8.535156-8.535156-8.535156h-34.132812c-4.710938 0-8.53125 3.820312-8.53125 8.535156 0 4.710938 3.820312 8.53125 8.53125 8.53125zm0 0"/></svg>