<svg id="Capa_1" data-name="Capa 1" xmlns="http://www.w3.org/2000/svg" viewBox="0 0 500 500"><defs><style>.cls-1{fill:#bac9ce;}.cls-2{fill:#34668a;}.cls-3{fill:#043959;}.cls-3,.cls-5{opacity:0.5;}.cls-4{fill:#ebbe48;}.cls-5{fill:#8a7f53;}</style></defs><title>c</title><path class="cls-1" d="M228,365v.08a22,22,0,1,0,44.05,0V365Z"/><path class="cls-2" d="M270.65,365.12h-41.3a12.39,12.39,0,0,1,0-24.78h41.3a12.39,12.39,0,0,1,0,24.78Z"/><path class="cls-3" d="M245.87,365.12H229.35a12.39,12.39,0,1,1,0-24.78h16.52a12.39,12.39,0,0,0,0,24.78Z"/><path class="cls-2" d="M270.65,340.34h-41.3a12.39,12.39,0,1,1,0-24.78h41.3a12.39,12.39,0,1,1,0,24.78Z"/><path class="cls-3" d="M245.87,340.34H229.35a12.39,12.39,0,1,1,0-24.78h16.52a12.39,12.39,0,0,0,0,24.78Z"/><path class="cls-4" d="M325.16,215.62a75.16,75.16,0,1,0-120.87,59.66,32.74,32.74,0,0,1,12.67,26,14.26,14.26,0,0,0,14.26,14.26h37.55A14.26,14.26,0,0,0,283,301.3h0a33.31,33.31,0,0,1,13-26.28,75,75,0,0,0,29.1-59.39Z"/><path class="cls-5" d="M237.66,311.38a14.23,14.23,0,0,0,10.08,4.17H231.22A14.26,14.26,0,0,1,217,301.3a32.73,32.73,0,0,0-12.67-26A75.16,75.16,0,0,1,250.9,140.47c2.49,0,5,.18,7.37.45a75.16,75.16,0,0,0-37.46,134.37,32.73,32.73,0,0,1,12.67,26A14.22,14.22,0,0,0,237.66,311.38Z"/><path d="M181.46,234.37c-11.15-41,17.78-84.16,60-89.26a4.13,4.13,0,0,0-1-8.2c-47.23,5.7-79.49,53.74-67,99.63q1.93,3.71,5.07,2.9a4.13,4.13,0,0,0,2.9-5.07Z"/><path d="M259.49,136.9a4.13,4.13,0,0,0-1,8.2,71,71,0,0,1,35,126.65,37.74,37.74,0,0,0-14.62,29.55c0,6.91-6.59,10.17-12.39,10.13V233.14h9.17a17.35,17.35,0,0,0,0-34.69h-.09a17.37,17.37,0,0,0-17.35,17.35v9.09H241.74v-9.09a17.37,17.37,0,0,0-17.35-17.35h-.09a17.35,17.35,0,1,0,0,34.69h9.17v78.29c-5.8,0-12.39-3.22-12.39-10.13A37.06,37.06,0,0,0,206.8,272a70.87,70.87,0,0,1-18.86-21.81,4.13,4.13,0,1,0-7.21,4,79.1,79.1,0,0,0,21,24.34,28.75,28.75,0,0,1,11.05,22.74A19.63,19.63,0,0,0,219,315.06a17.56,17.56,0,0,0-6.19,12.89,16.48,16.48,0,0,0,5.6,12.38,17.63,17.63,0,0,0-5.6,12.4q.74,11.62,11.22,15.65a26.15,26.15,0,0,0,51.89,0c6.23-2.1,11.22-9.07,11.22-15.65a16.48,16.48,0,0,0-5.6-12.38,17.62,17.62,0,0,0,5.6-12.4A16.49,16.49,0,0,0,281,315.06a18.35,18.35,0,0,0,6.21-13.76,29.83,29.83,0,0,1,11.42-23,79.29,79.29,0,0,0-39.1-141.37Zm7,78.89a9.1,9.1,0,0,1,9.09-9.09h.09a9.09,9.09,0,0,1,0,18.17h-9.17Zm-42.21,9.09a9.09,9.09,0,0,1,0-18.17h.09a9.1,9.1,0,0,1,9.09,9.09v9.09Zm17.43,8.26h16.52v78.29H241.74ZM250,383a17.92,17.92,0,0,1-17.41-13.77h34.82A17.92,17.92,0,0,1,250,383Zm20.65-63.32a8.27,8.27,0,0,1,8.26,8.26q-.71,7.55-8.26,8.26h-6a4.13,4.13,0,1,0,0,8.26h6a8.27,8.27,0,0,1,8.26,8.26,8.55,8.55,0,0,1-8.26,8.26h-41.3q-7.68-.86-8.26-8.26.71-7.55,8.26-8.26h17.33a4.13,4.13,0,0,0,0-8.26H229.35a8.27,8.27,0,0,1-8.26-8.26q.71-7.55,8.26-8.26Z"/><path d="M250,128.55a4.13,4.13,0,0,1-4.13-4.13V112.86a4.13,4.13,0,0,1,8.26,0v11.56A4.13,4.13,0,0,1,250,128.55Z"/><path d="M186.14,155a4.12,4.12,0,0,1-2.92-1.21L175,145.61a4.13,4.13,0,0,1,5.84-5.84l8.18,8.18a4.13,4.13,0,0,1-2.92,7Z"/><path d="M322,290.89a4.12,4.12,0,0,1-2.92-1.21l-8.18-8.18a4.13,4.13,0,0,1,5.84-5.84l8.18,8.18a4.13,4.13,0,0,1-2.92,7Z"/><path d="M159.69,218.86H148.13a4.13,4.13,0,1,1,0-8.26h11.56a4.13,4.13,0,0,1,0,8.26Z"/><path d="M351.87,218.86H340.31a4.13,4.13,0,0,1,0-8.26h11.56a4.13,4.13,0,1,1,0,8.26Z"/><path d="M178,290.89a4.13,4.13,0,0,1-2.92-7l8.18-8.18a4.13,4.13,0,0,1,5.84,5.84l-8.18,8.18a4.12,4.12,0,0,1-2.92,1.21Z"/><path d="M313.86,155a4.13,4.13,0,0,1-2.92-7l8.18-8.18a4.13,4.13,0,1,1,5.84,5.84l-8.18,8.18A4.12,4.12,0,0,1,313.86,155Z"/></svg>