<svg id="Capa_1" enable-background="new 0 0 512 512" height="512" viewBox="0 0 512 512" width="512" xmlns="http://www.w3.org/2000/svg"><g><g><path clip-rule="evenodd" d="m212.36 51.658.028 66.049 2.013 188.623h270.539c3.487 0 6.321-2.835 6.321-6.321v-248.351l-135.261-18.658z" fill="#eff6ff" fill-rule="evenodd"/></g><g><path clip-rule="evenodd" d="m212.36 51.658h278.902 4.309c4.904 0 8.929-4.025 8.929-8.929v-24.35c0-4.932-4.025-8.929-8.929-8.929h-287.491c-4.904 0-8.929 3.997-8.929 8.929v24.35c0 4.904 4.025 8.929 8.929 8.929z" fill="#375e7d" fill-rule="evenodd"/></g><g><path clip-rule="evenodd" d="m64.193 226.136h-16.271c-7.569 0-13.748 6.123-13.748 13.692v7.625c0 14.684 14.627 22.65 29.679 22.791h3.146c24.01-10.715 17.604-27.411-2.806-44.108z" fill="#ffbc85" fill-rule="evenodd"/></g><g><path clip-rule="evenodd" d="m239.091 502.551h51.08c2.438 0 4.45-2.013 4.45-4.451v-52.272c0-25.994-10.176-53.605-38.041-62.194l-30.586-9.411h-149.895l-30.558 9.411c-27.893 8.589-38.041 36.199-38.041 62.194v52.272c0 2.438 1.984 4.451 4.422 4.451h51.08z" fill="#9fd4fe" fill-rule="evenodd"/></g><g><path clip-rule="evenodd" d="m237.929 226.136c-12.472 11.112-14.372 26.08-2.835 44.108h3.175c15.024-.142 29.65-8.107 29.65-22.791v-7.625c0-7.569-6.18-13.692-13.748-13.692z" fill="#ffbc85" fill-rule="evenodd"/></g><g><path clip-rule="evenodd" d="m195.409 293.764c-7.03 5.131-14.655 9.355-22.592 12.274-7.88 2.92-14.825 4.394-21.77 4.394s-13.89-1.474-21.742-4.394c-7.937-2.92-15.562-7.144-22.621-12.274v91.145l44.362 26.448 44.362-26.448v-91.145z" fill="#fed1a3" fill-rule="evenodd"/></g><g><path clip-rule="evenodd" d="m151.047 391.373-24.047 1.627-3.024 20.257 10.602 20.07c1.162 2.154 2.863 2.891 4.904 2.891h23.131 1.191c2.438 0 3.288-2.296 4.422-4.422l9.921-18.539 3.187-19.923z" fill="#aa7550" fill-rule="evenodd"/></g><g><path clip-rule="evenodd" d="m151.047 391.373-44.362-26.476-6.69-3.969c-5.102-3.062-7.937-1.701-11.254 1.417l-12.643 11.878 34.98 49.466z" fill="#eff6ff" fill-rule="evenodd"/></g><g><path clip-rule="evenodd" d="m151.047 391.373 27.099 21.884 12.898 10.432 34.951-49.466-12.643-11.878c-3.317-3.118-6.123-4.479-11.254-1.417l-6.69 3.969z" fill="#eff6ff" fill-rule="evenodd"/></g><g><path clip-rule="evenodd" d="m184.156 502.551-21.544-66.333h-23.13l-21.516 66.333z" fill="#935d38" fill-rule="evenodd"/></g><g><path clip-rule="evenodd" d="m212.616 80.346h216.511c20.835 0 31.493-3.147 31.493 17.915v208.069h24.321c3.487 0 6.321-2.835 6.321-6.321v-248.351h-278.902z" fill="#d9eeff" fill-rule="evenodd"/></g><g><path clip-rule="evenodd" d="m183.674 362.685v9.241l11.735-7.03v-41.132c-7.03 5.131-14.655 9.355-22.592 12.274-7.88 2.92-14.825 4.394-21.77 4.394-6.095 0-12.189-1.134-18.907-3.373-.935-.312-1.871-.652-2.835-1.021-7.937-2.92-15.562-7.144-22.621-12.274v24.436c17.887 9.553 48.246 13.153 68.088 5.584 9.327-3.543 8.902-1.474 8.902 8.901z" fill="#ffbc85" fill-rule="evenodd"/></g><g><path clip-rule="evenodd" d="m231.041 398.856c27.893 8.589 38.041 36.199 38.041 62.194v41.5h21.09c2.438 0 4.45-2.013 4.45-4.451v-52.272c0-25.994-10.176-53.605-38.041-62.194l-30.586-9.411-13.38 18.936z" fill="#85beef" fill-rule="evenodd"/></g><g><path clip-rule="evenodd" d="m212.616 393.158 13.38-18.936-12.643-11.878c-3.317-3.118-6.123-4.479-11.254-1.417l-6.69 3.969-11.735 7.03-7.087 4.224c5.102-3.061 7.398-1.02 11.254 1.417z" fill="#d9eeff" fill-rule="evenodd"/></g><g><path clip-rule="evenodd" d="m134.606 451.299h15.477l16.64 51.252h17.433l-21.544-66.333h-23.13z" fill="#7f4d2a" fill-rule="evenodd"/></g><g><path clip-rule="evenodd" d="m192.688 144.749h-41.641-41.613c-11.395 0-20.721 9.298-20.721 20.694v10.347c0 5.698-4.649 10.347-10.346 10.347h-14.174v66.363c0 5.698.992 11.707 2.806 17.745 5.953 19.588 20.778 39.8 39.685 53.52 7.058 5.131 14.684 9.355 22.621 12.274 7.852 2.92 14.797 4.394 21.742 4.394s13.89-1.474 21.77-4.394c7.937-2.92 15.562-7.144 22.592-12.274 6.973-5.046 13.38-10.97 18.992-17.434 9.638-11.055 16.951-23.698 20.693-36.086 1.843-6.038 2.835-12.048 2.835-17.745v-66.363h-14.202c-5.698 0-10.346-4.649-10.346-10.347v-10.347c0-11.396-9.326-20.694-20.693-20.694z" fill="#ffe5c1" fill-rule="evenodd"/></g><g><path clip-rule="evenodd" d="m153.74 409.458 18.454 14.939 5.953-11.141-27.099-21.884-27.071 21.884 6.151 11.651 19.106-15.449c2.692-2.154 1.841-2.154 4.506 0z" fill="#935d38" fill-rule="evenodd"/></g><g><path clip-rule="evenodd" d="m453.675 18.379v24.35c0 4.904-4.025 8.929-8.929 8.929h46.517 4.309c4.904 0 8.929-4.025 8.929-8.929v-24.35c0-4.932-4.025-8.929-8.929-8.929h-50.825c4.902-.001 8.928 3.996 8.928 8.929z" fill="#2b4d66" fill-rule="evenodd"/></g><g><path clip-rule="evenodd" d="m212.36 117.708c-8.306-3.458-17.547-5.159-26.844-5.159h-68.91c-33.024 0-65.254 21.402-58.847 67.41l6.435 46.178h14.173c5.698 0 10.346-4.649 10.346-10.347v-10.347c0-11.396 9.326-20.694 20.721-20.694h41.613 41.641c11.367 0 20.693 9.298 20.693 20.694v10.347c0 5.698 4.649 10.347 10.346 10.347h14.202l6.435-46.178c4.592-33.054-10.744-53.407-32.004-62.251z" fill="#375e7d" fill-rule="evenodd"/></g><g><path clip-rule="evenodd" d="m195.409 216.81c0 58.027-26.901 106.728-63.269 120.249 6.718 2.239 12.813 3.373 18.907 3.373 6.945 0 13.89-1.474 21.77-4.394 7.937-2.92 15.562-7.144 22.592-12.274 6.973-5.046 13.38-10.97 18.992-17.434 9.638-11.055 16.951-23.698 20.693-36.086 1.843-6.038 2.835-12.048 2.835-17.745v-26.363h-14.202c-4.819 0-8.901-3.317-10.035-7.796-.198-.822-.312-1.672-.312-2.551v-10.347c0-11.396-9.326-20.694-20.693-20.694h-.085c1.843 10.234 2.807 20.978 2.807 32.062z" fill="#fed1a3" fill-rule="evenodd"/></g><g><path clip-rule="evenodd" d="m176.786 112.548c17.632 10.12 30.189 26.958 29.764 56.695l-.312 20.58c4.365 3.799 7.143 9.411 7.143 15.619v10.347c0 .879.113 1.729.312 2.551 1.134 4.479 5.216 7.796 10.035 7.796h14.202l6.435-46.178c4.564-32.77-10.488-53.066-31.465-62.024-.17-.085-.34-.142-.539-.227-8.306-3.458-17.547-5.159-26.844-5.159z" fill="#2b4d66" fill-rule="evenodd"/></g><g><path clip-rule="evenodd" d="m414.925 148.946c-.113-84.929-126.114-84.929-126.199 0-.057 42.691 38.381 47.822 38.381 87.565h24.718 24.69c0-39.743 38.438-44.874 38.41-87.565z" fill="#ffd772" fill-rule="evenodd"/></g><g><path clip-rule="evenodd" d="m351.826 236.511h-24.718v21.657c0 8.022 6.576 14.599 14.627 14.599h20.183c8.022 0 14.598-6.577 14.598-14.599v-21.657z" fill="#beb9dd" fill-rule="evenodd"/></g><g><path clip-rule="evenodd" d="m390.207 148.946c.057 42.691-38.381 47.822-38.381 87.565h24.69c0-39.743 38.438-44.874 38.41-87.565-.057-48.049-40.394-68.912-75.458-62.619 26.899 4.848 50.71 25.711 50.739 62.619z" fill="#fbba58" fill-rule="evenodd"/></g><g><path clip-rule="evenodd" d="m376.515 236.511h-24.69v21.657c0 7.257-5.386 13.323-12.359 14.429.737.113 1.502.17 2.268.17h20.183c8.022 0 14.598-6.577 14.598-14.599z" fill="#a7a2d3" fill-rule="evenodd"/></g><g><path d="m495.571 1.949h-287.491c-9.059 0-16.429 7.37-16.429 16.43v24.35c0 7.957 5.687 14.607 13.209 16.109v48.534c-6.136-1.525-12.635-2.322-19.344-2.322h-16.923c-4.142 0-7.5 3.357-7.5 7.5s3.358 7.5 7.5 7.5h16.923c16.966 0 32.034 6.133 41.341 16.825 9.115 10.472 12.505 24.619 10.079 42.049l-5.534 39.713h-7.674c-1.543 0-2.847-1.304-2.847-2.847v-10.347c0-15.546-12.647-28.193-28.193-28.193h-83.254c-15.561 0-28.221 12.647-28.221 28.193v10.347c0 1.543-1.304 2.847-2.847 2.847h-7.646l-5.534-39.712c-2.427-17.431.964-31.578 10.079-42.05 9.307-10.692 24.375-16.825 41.341-16.825h17.376c4.142 0 7.5-3.357 7.5-7.5s-3.358-7.5-7.5-7.5h-17.376c-21.307 0-40.499 8.011-52.655 21.978-11.92 13.694-16.63 32.355-13.621 53.967l5.245 37.643h-7.653c-11.716 0-21.248 9.507-21.248 21.192v7.625c0 18.867 17.198 29.255 34.948 30.214 6.918 18.492 20.593 36.593 37.562 49.803v24.922c-8.192-2.454-13.602 2.628-15.579 4.487l-11.375 10.687-28.897 8.9c-27.133 8.353-43.333 34.283-43.333 69.36v52.272c0 6.59 5.348 11.95 11.922 11.95h278.25c6.589 0 11.95-5.36 11.95-11.95v-52.272c0-35.068-16.199-60.998-43.335-69.362l-28.923-8.9-11.373-10.685c-3.357-3.156-8.408-6.707-15.581-4.505v-24.891c5.295-4.12 10.267-8.717 14.817-13.653l114.651.028h.002c4.141 0 7.499-3.356 7.5-7.498.001-4.143-3.356-7.501-7.498-7.502l-102.838-.025c4.544-6.819 8.256-13.961 10.952-21.163 17.697-.937 34.924-11.329 34.924-30.218v-7.625c0-11.686-9.532-21.192-21.248-21.192h-7.625l5.245-37.644c3.009-21.61-1.701-40.271-13.621-53.966-5.016-5.763-11.245-10.493-18.311-14.084v-53.785h263.902v239.673h-114.645c-4.142 0-7.5 3.357-7.5 7.5s3.358 7.5 7.5 7.5h115.824c7.621 0 13.821-6.2 13.821-13.822v-241.167c7.536-1.491 13.238-8.146 13.238-16.113v-24.35c0-9.06-7.37-16.43-16.429-16.43zm-453.897 245.504v-7.625c0-3.414 2.803-6.192 6.248-6.192h8.771v18.863c0 3.137.267 6.328.762 9.544-7.768-1.588-15.781-6.003-15.781-14.59zm53.385 119.352c.23.093 42.907 25.5 42.907 25.5l-25.383 20.522-26.593-37.606s8.838-8.251 9.069-8.416zm55.989 34.211 17.552 14.181-6.993 13.068c-.08.15-.159.301-.237.452h-20.746l-7.134-13.506zm-80.546 94.035v-43.752c0-4.143-3.358-7.5-7.5-7.5s-7.5 3.357-7.5 7.5v43.752h-40.502v-49.223c0-13.513 3.191-45.925 32.749-55.026l25.364-7.812 31.842 45.029c1.197 1.692 3.041 2.814 5.094 3.099.343.048.687.071 1.029.071 1.706 0 3.373-.582 4.715-1.668l5.81-4.698 6.372 12.063c.66 1.225 1.457 2.291 2.366 3.2l-17.828 54.965zm57.782 0 16.65-51.333h12.229l16.672 51.333zm100.701-112.062 25.387 7.812c29.559 9.111 32.75 41.518 32.75 55.027v49.223h-40.531v-43.752c0-4.143-3.358-7.5-7.5-7.5s-7.5 3.357-7.5 7.5v43.752h-41.986l-17.831-54.903c1.36-1.506 2.203-3.144 2.73-4.172.111-.217.223-.435.333-.642l5.641-10.541 5.852 4.728c1.342 1.084 3.008 1.666 4.713 1.666.343 0 .688-.023 1.032-.071 2.053-.285 3.897-1.408 5.093-3.101zm-21.945-16.183c.232.167 9.066 8.416 9.066 8.416l-26.57 37.605-25.404-20.524c-.001 0 42.675-25.405 42.908-25.497zm-19.131-6.148-36.862 21.983-36.862-21.983v-23.323c4.072 2.219 8.25 4.158 12.507 5.735 8.926 3.317 16.665 4.863 24.355 4.863 7.677 0 15.423-1.545 24.376-4.861 4.25-1.575 8.421-3.511 12.486-5.726zm-17.697-31.652c-7.232 2.679-13.322 3.927-19.165 3.927-5.85 0-11.928-1.247-19.138-3.927-32.078-11.878-60.216-47.628-60.216-76.507v-18.863h6.673c9.841 0 17.847-8.006 17.847-17.847v-10.347c0-7.274 5.931-13.193 13.221-13.193h83.254c7.274 0 13.193 5.919 13.193 13.193v10.347c0 9.841 8.006 17.847 17.847 17.847h6.702v18.863c-.001 28.869-28.14 64.62-60.218 76.507zm90.208-89.178v7.625c0 8.596-8.02 13.012-15.754 14.595.496-3.218.763-6.41.763-9.549v-18.863h8.743c3.445 0 6.248 2.778 6.248 6.192zm-53.769-221.449c0-.775.654-1.43 1.429-1.43h287.491c.775 0 1.429.654 1.429 1.43v24.35c0 .762-.668 1.43-1.429 1.43h-287.491c-.761 0-1.429-.668-1.429-1.43z"/><path d="m341.734 280.268h20.183c12.185 0 22.098-9.913 22.098-22.099v-21.658c0-16.806 7.862-26.284 16.967-37.259 10.059-12.126 21.459-25.87 21.443-50.315-.029-21.867-7.723-40.315-22.25-53.349-12.822-11.504-29.994-17.838-48.36-17.838-.003 0-.01 0-.013 0-18.365.003-35.537 6.341-48.352 17.848-14.517 13.033-22.202 31.479-22.224 53.339-.032 24.446 11.366 38.193 21.423 50.321 9.1 10.974 16.958 20.45 16.958 37.253v21.658c0 12.185 9.926 22.099 22.127 22.099zm27.281-22.099c0 3.848-3.25 7.099-7.098 7.099h-20.183c-3.93 0-7.126-3.185-7.126-7.099v-14.158h34.408v14.158zm-54.819-68.486c-9.656-11.645-17.995-21.701-17.97-40.729.039-38.61 28.837-56.2 55.578-56.204h.01c26.749 0 55.559 17.589 55.61 56.201.013 19.023-8.329 29.079-17.988 40.724-8.441 10.176-17.871 21.554-19.982 39.336h-10.128v-61.169h6.446c4.142 0 7.5-3.357 7.5-7.5s-3.358-7.5-7.5-7.5h-27.893c-4.142 0-7.5 3.357-7.5 7.5s3.358 7.5 7.5 7.5h6.447v61.169h-10.157c-2.111-17.778-11.536-29.154-19.973-39.328z"/><path d="m121.623 227.197c-4.142 0-7.5 3.357-7.5 7.5v6.859c0 4.143 3.358 7.5 7.5 7.5s7.5-3.357 7.5-7.5v-6.859c0-4.142-3.358-7.5-7.5-7.5z"/><path d="m185.12 227.197c-4.142 0-7.5 3.357-7.5 7.5v6.859c0 4.143 3.358 7.5 7.5 7.5s7.5-3.357 7.5-7.5v-6.859c0-4.142-3.358-7.5-7.5-7.5z"/><path d="m163.942 283.027c-2.82 2.819-6.574 4.372-10.571 4.372s-7.751-1.553-10.571-4.372c-2.928-2.93-7.677-2.929-10.606-.001-2.929 2.929-2.929 7.678 0 10.606 5.653 5.653 13.174 8.767 21.178 8.767 8.003 0 15.524-3.113 21.177-8.767 2.929-2.929 2.929-7.678 0-10.606-2.929-2.927-7.678-2.928-10.607.001z"/></g></g></svg>