<svg id="Capa_1" data-name="Capa 1" xmlns="http://www.w3.org/2000/svg" viewBox="0 0 500 500"><defs><style>.cls-1{fill:#bac9ce;}.cls-2{fill:#34668a;}.cls-3{fill:#f9f5f3;}</style></defs><title>c</title><path class="cls-1" d="M355.66,220.11l-101,101L230.52,297l31.26-31.26a14.36,14.36,0,0,0,0-20.1,14.21,14.21,0,0,0-20.09,0l-31.27,31.27-24.12-24.12,101-101A65.78,65.78,0,0,1,315.95,135l36-10.18a24.88,24.88,0,0,1,30.72,30.72l-10.18,36a65.81,65.81,0,0,1-16.79,28.62Z"/><path class="cls-2" d="M212.56,315l-20.1-20.1,49.23-49.23a14.21,14.21,0,0,1,20.1,0,14.36,14.36,0,0,1,0,20.1Z"/><path class="cls-2" d="M186.31,252.81a25.41,25.41,0,0,1-35.93,0L132.67,235.1,150,217.82a42.75,42.75,0,0,1,36.13-12.11l41.54,5.79Z"/><path class="cls-2" d="M254.64,321.14a25.4,25.4,0,0,0,0,35.93l17.71,17.71,17.29-17.29a42.75,42.75,0,0,0,12.11-36.13L296,279.82Z"/><circle class="cls-3" cx="311.72" cy="195.64" r="18.94" transform="translate(-35.54 73.75) rotate(-12.77)"/><path d="M380.12,127.32a30.57,30.57,0,0,0-29.69-7.74l-36,10.18a71.35,71.35,0,0,0-31,18.16l-.09.09a5.43,5.43,0,0,0,7.67,7.69l.1-.1a60.48,60.48,0,0,1,26.24-15.39l36-10.18a19.45,19.45,0,0,1,24,24l-10.18,36a60.52,60.52,0,0,1-15.4,26.25L292.13,276l0,0-37.48,37.48L238.2,297l27.42-27.42a19.64,19.64,0,1,0-27.77-27.78l-27.43,27.43L194,252.81l63.57-63.57a5.43,5.43,0,0,0-7.68-7.68L225.7,205.74l-38.86-5.42A48.42,48.42,0,0,0,146.12,214l-17.29,17.29a5.49,5.49,0,0,0,0,7.68l17.71,17.71a30.83,30.83,0,0,0,39.43,3.5l16.78,16.78L188.62,291a5.43,5.43,0,0,0,0,7.68l20.1,20.1a5.49,5.49,0,0,0,7.68,0l14.13-14.13,16.78,16.78a30.83,30.83,0,0,0,3.5,39.43l17.71,17.71a5.49,5.49,0,0,0,7.68,0l17.29-17.29a48.43,48.43,0,0,0,13.65-40.72l-5.41-38.86L359.5,224a71.41,71.41,0,0,0,18.17-31l10.18-36a30.35,30.35,0,0,0-7.73-29.69ZM154.22,249,140.35,235.1l13.45-13.45a37.51,37.51,0,0,1,31.54-10.57l30.74,4.28L182.47,249a20,20,0,0,1-28.25,0Zm58.34,58.34-12.42-12.42,14.09-14.09,0,0,31.27-31.27a8.79,8.79,0,0,1,12.41,0,8.88,8.88,0,0,1,0,12.42Zm83.81,14.8a37.51,37.51,0,0,1-10.57,31.54l-13.45,13.45-13.87-13.87a20,20,0,0,1,0-28.23l0,0,33.6-33.6Z"/><path d="M311.77,220A24.37,24.37,0,0,0,329,178.44a24.37,24.37,0,1,0-34.47,34.47A24.21,24.21,0,0,0,311.77,220Zm-9.56-33.93a13.51,13.51,0,1,1,0,19.11A13.64,13.64,0,0,1,302.22,186.12Z"/><path d="M167,292.91a5.43,5.43,0,0,0-7.68-7.68l-46.71,46.71a5.43,5.43,0,0,0,7.68,7.68Z"/><path d="M180,329a5.43,5.43,0,0,0-7.68,0L119,382.29A5.43,5.43,0,0,0,126.7,390L180,336.67A5.43,5.43,0,0,0,180,329Z"/><path d="M220.82,330.78l-26.4,26.4a5.43,5.43,0,1,0,7.68,7.68l26.4-26.4a5.43,5.43,0,0,0-7.68-7.68Z"/><path d="M185.16,378.06a5.43,5.43,0,1,0-2.94,7.09A5.48,5.48,0,0,0,185.16,378.06Z"/><path d="M265.25,170.94a5.43,5.43,0,1,0,2.22-6.73A5.47,5.47,0,0,0,265.25,170.94Z"/></svg>