<svg width="238" height="41" viewBox="0 0 238 41" fill="none" xmlns="http://www.w3.org/2000/svg">
<path d="M44.3002 9.2C46.8407 9.2 48.9002 7.14051 48.9002 4.6C48.9002 2.05949 46.8407 0 44.3002 0C41.7597 0 39.7002 2.05949 39.7002 4.6C39.7002 7.14051 41.7597 9.2 44.3002 9.2Z" fill="#EBBE48"/>
<path d="M13.3002 9.2C15.8407 9.2 17.9002 7.14051 17.9002 4.6C17.9002 2.05949 15.8407 0 13.3002 0C10.7597 0 8.7002 2.05949 8.7002 4.6C8.7002 7.14051 10.7597 9.2 13.3002 9.2Z" fill="#EBBE48"/>
<path d="M53.8 17.6C51.2 15 47.8 13.6 44.2 13.6C40.6 13.6 37.2 15 34.6 17.6L19.3 32.9C17.8 34.4 15.7 35.3 13.6 35.3C12.5 35.3 11.3 35.1 10.3 34.6L23.2 21.4L25.1 19.5L24.8 19.2C24.8 19.2 23.6 18 23.2 17.6C23.1 17.5 23 17.4 23 17.4C20.5 15 17.1 13.6 13.6 13.6C10 13.6 6.6 15 4 17.6C1.4 20.2 0 23.6 0 27.2C0 30.8 1.4 34.2 4 36.8C6.6 39.4 10 40.8 13.6 40.8C17.2 40.8 20.6 39.4 23.2 36.8L38.5 21.5C40 19.9 42 19 44.2 19C46.4 19 48.4 19.8 49.9 21.4C51.4 22.9 52.3 25 52.3 27.1C52.3 29.2 51.5 31.3 49.9 32.8C48.4 34.3 46.3 35.2 44.2 35.2C42 35.2 40 34.4 38.5 32.8L36.5 30.8L32.7 34.6L34.6 36.6C37.2 39.2 40.6 40.6 44.2 40.6C47.8 40.6 51.2 39.2 53.8 36.6C56.4 34 57.8 30.6 57.8 27C57.8 23.4 56.3 20.1 53.8 17.6ZM7.8 21.4C9.3 19.9 11.4 19 13.5 19C14.7 19 16 19.3 17.1 19.8L6.3 30.8C5.7 29.7 5.4 28.4 5.4 27.1C5.4 25 6.3 22.9 7.8 21.4Z" fill="url(#paint0_linear)"/>
<path d="M122.5 23.8V40H115.2V24.6C115.2 21.9 114 20.3 111.4 20.3C108.2 20.3 106.3 22.6 106.3 25.8V39.9H99V14.6H103.7L105.1 18.6C106.7 15.9 109.5 13.8 113.6 13.8C119.5 13.8 122.5 17.5 122.5 23.8Z" fill="#323232"/>
<path d="M128.4 1.2H135.7L135.8 39.9H128.5L128.4 1.2Z" fill="#323232"/>
<path d="M163.2 23.8V39.9H158.4L157.1 36.2C155.2 39 152.3 40.4 148.4 40.4C143.8 40.4 140.5 37.7 140.5 33.2C140.5 27.1 145.8 24.2 153.4 24.2C154.5 24.2 155.2 24.3 155.8 24.3V23.3C155.8 21.1 154.2 20.1 151.3 20.1C148.9 20.1 146 21 143.5 22.2L141.4 16.7C145.3 14.8 148.8 14 152.5 14C159.2 14.1 163.2 17.4 163.2 23.8ZM156.1 28.8C155.3 28.7 154.6 28.6 153.6 28.6C149.9 28.6 147.6 30 147.6 32.5C147.6 34.4 148.8 35.3 150.7 35.3C153.6 35.3 156 33 156.1 28.8Z" fill="#323232"/>
<path d="M188.1 33.8V40H167.5V37.9L175.7 23.9L177.6 20.7C176.1 20.8 175.4 20.8 174.2 20.8H167.9V14.6H187.9V16.7L179.8 30.4C179.1 31.6 178.5 32.7 177.7 33.9C179.2 33.8 180.2 33.8 181.5 33.8H188.1Z" fill="#323232"/>
<path d="M213.8 23.8V39.9H209L207.7 36.2C205.8 39 202.9 40.4 199 40.4C194.4 40.4 191.1 37.7 191.1 33.2C191.1 27.1 196.4 24.2 204 24.2C205.1 24.2 205.8 24.3 206.4 24.3V23.3C206.4 21.1 204.8 20.1 201.9 20.1C199.5 20.1 196.6 21 194.1 22.2L192 16.7C195.9 14.8 199.4 14 203.1 14C209.7 14.1 213.8 17.4 213.8 23.8ZM206.7 28.8C205.9 28.7 205.2 28.6 204.2 28.6C200.5 28.6 198.2 30 198.2 32.5C198.2 34.4 199.4 35.3 201.3 35.3C204.2 35.3 206.6 33 206.7 28.8Z" fill="#323232"/>
<path d="M237.4 15.1L235.7 21.3C234.7 20.9 233.7 20.7 232.4 20.7C229.1 20.7 226.9 22.9 226.9 26.5V40H219.6V14.6H224.3L225.7 18.5C227.1 15.7 229.6 14.1 233 14.1C234.8 14.1 236.2 14.4 237.4 15.1Z" fill="#323232"/>
<path d="M93.7 21.9C93.5 21.3 93.3 20.7 93.1 20.1C91.3 16.2 87.7 13.8 82.6 13.8C74.8 13.8 69.5 19.8 69.5 27.1C69.5 35.1 75.1 40.6 83.4 40.6C87.1 40.6 90.3 39.6 93.4 37.1L90.7 32.5C88.8 34 86.8 34.7 84.3 34.7C80.5 34.7 77.7 33 76.9 29.4C76.9 29.4 76.7 28.6 76.6 27.1C76.6 25.6 76.8 24.7 76.8 24.7C77.4 21.3 79.6 19.5 82.4 19.5C85.3 19.5 87.2 21.4 87.2 24.7V26L93.7 21.9Z" fill="#323232"/>
<path d="M89.6444 17.7925L73.1689 34.2679L77.2701 38.3691L93.7456 21.8937L89.6444 17.7925Z" fill="#323232"/>
<defs>
<linearGradient id="paint0_linear" x1="0" y1="27.1435" x2="57.7459" y2="27.1435" gradientUnits="userSpaceOnUse">
<stop stop-color="#043959"/>
<stop offset="1" stop-color="#34668A"/>
</linearGradient>
</defs>
</svg>
