<svg width="34" height="30" viewBox="0 0 34 30" fill="none" xmlns="http://www.w3.org/2000/svg">
<path d="M34 4.09115C32.7356 4.67135 31.3884 5.05593 29.9837 5.24267C31.4287 4.34012 32.5316 2.92184 33.0501 1.21234C31.7029 2.05264 30.2154 2.64618 28.6301 2.97741C27.3509 1.55246 25.5276 0.669922 23.5386 0.669922C19.6796 0.669922 16.5729 3.94665 16.5729 7.96364C16.5729 8.54163 16.6196 9.09738 16.7344 9.62646C10.9395 9.3308 5.81187 6.42531 2.36725 1.99929C1.76587 3.09079 1.41313 4.34012 1.41313 5.68505C1.41313 8.2104 2.65625 10.449 4.50925 11.745C3.38937 11.7228 2.29075 11.3826 1.36 10.8469C1.36 10.8691 1.36 10.898 1.36 10.9269C1.36 14.4704 3.77612 17.4137 6.9445 18.0917C6.37712 18.254 5.75875 18.3318 5.117 18.3318C4.67075 18.3318 4.22025 18.3051 3.79737 18.2073C4.7005 21.095 7.26325 23.218 10.3105 23.2869C7.939 25.2276 4.92788 26.3969 1.66813 26.3969C1.0965 26.3969 0.54825 26.3702 0 26.2969C3.08762 28.3798 6.74688 29.5691 10.693 29.5691C23.5195 29.5691 30.532 18.4541 30.532 8.8195C30.532 8.49717 30.5214 8.18594 30.5065 7.87694C31.8899 6.84991 33.0522 5.56723 34 4.09115Z" fill="#043959"/>
</svg>
