<svg width="28" height="29" viewBox="0 0 28 29" fill="none" xmlns="http://www.w3.org/2000/svg">
<path d="M27.0721 8.90735C27.0085 7.41863 26.7753 6.39515 26.4412 5.5083C26.0965 4.56692 25.5661 3.72411 24.8714 3.02347C24.1925 2.31193 23.3706 1.75904 22.469 1.40883C21.6048 1.06396 20.6183 0.823219 19.176 0.757581C17.7228 0.686385 17.2615 0.669922 13.5758 0.669922C9.89021 0.669922 9.42889 0.686385 7.98111 0.752022C6.53872 0.81766 5.54709 1.05862 4.68803 1.40327C3.77574 1.75904 2.95915 2.30637 2.28032 3.02347C1.59092 3.72411 1.05543 4.57248 0.715913 5.50295C0.381779 6.39515 0.148527 7.41307 0.0849318 8.90179C0.0159506 10.4016 0 10.8778 0 14.6818C0 18.4857 0.0159506 18.9619 0.0795459 20.4562C0.143141 21.9449 0.3766 22.9684 0.710735 23.8552C1.05543 24.7966 1.59092 25.6394 2.28032 26.34C2.95915 27.0516 3.78112 27.6045 4.68265 27.9547C5.54709 28.2995 6.53333 28.5403 7.97593 28.6059C9.4235 28.6718 9.88503 28.688 13.5707 28.688C17.2563 28.688 17.7176 28.6718 19.1654 28.6059C20.6078 28.5403 21.5994 28.2995 22.4585 27.9547C24.2828 27.2267 25.7252 25.738 26.4306 23.8552C26.7645 22.963 26.998 21.9449 27.0616 20.4562C27.1252 18.9619 27.1411 18.4857 27.1411 14.6818C27.1411 10.8778 27.1357 10.4016 27.0721 8.90735ZM24.6275 20.3467C24.5691 21.715 24.3464 22.4539 24.1608 22.9465C23.7047 24.1672 22.7661 25.1359 21.5835 25.6067C21.1062 25.7983 20.3851 26.0281 19.0645 26.0882C17.6327 26.154 17.2033 26.1703 13.5812 26.1703C9.95919 26.1703 9.52438 26.154 8.09773 26.0882C6.77197 26.0281 6.05606 25.7983 5.57878 25.6067C4.99026 25.3822 4.45457 25.0264 4.01976 24.5612C3.569 24.1069 3.2243 23.5595 3.00679 22.9521C2.82119 22.4595 2.5985 21.715 2.54029 20.3523C2.47649 18.8744 2.46075 18.431 2.46075 14.6927C2.46075 10.9543 2.47649 10.5055 2.54029 9.03328C2.5985 7.66493 2.82119 6.92603 3.00679 6.43343C3.2243 5.8258 3.569 5.27311 4.02515 4.82413C4.46514 4.35889 4.99544 4.00312 5.58417 3.77884C6.06144 3.58727 6.78274 3.35743 8.10312 3.29714C9.53495 3.2315 9.96458 3.21504 13.5864 3.21504C17.2138 3.21504 17.6432 3.2315 19.0699 3.29714C20.3957 3.35743 21.1116 3.58727 21.5888 3.77884C22.1774 4.00312 22.7131 4.35889 23.1479 4.82413C23.5986 5.27846 23.9433 5.8258 24.1608 6.43343C24.3464 6.92603 24.5691 7.67028 24.6275 9.03328C24.6911 10.5111 24.7071 10.9543 24.7071 14.6927C24.7071 18.431 24.6911 18.8689 24.6275 20.3467Z" fill="#043959"/>
<path d="M13.576 7.48427C9.72616 7.48427 6.60254 10.708 6.60254 14.6817C6.60254 18.6555 9.72616 21.8792 13.576 21.8792C17.4261 21.8792 20.5496 18.6555 20.5496 14.6817C20.5496 10.708 17.4261 7.48427 13.576 7.48427ZM13.576 19.3506C11.0784 19.3506 9.05251 17.2598 9.05251 14.6817C9.05251 12.1037 11.0784 10.0129 13.576 10.0129C16.0739 10.0129 18.0996 12.1037 18.0996 14.6817C18.0996 17.2598 16.0739 19.3506 13.576 19.3506Z" fill="#043959"/>
<path d="M22.4534 7.19969C22.4534 8.1276 21.7244 8.87997 20.8252 8.87997C19.9262 8.87997 19.1973 8.1276 19.1973 7.19969C19.1973 6.27157 19.9262 5.51941 20.8252 5.51941C21.7244 5.51941 22.4534 6.27157 22.4534 7.19969Z" fill="#043959"/>
</svg>
